<svg width="50" height="50" viewBox="0 0 50 50" fill="none" xmlns="http://www.w3.org/2000/svg">
<path d="M19.5161 22.1608V22.1161C19.5273 20.3946 20.1643 17.723 23.1143 14.772C26.0755 11.8098 28.7462 11.1726 30.4783 11.1615H30.523L33.3389 8.33337L36.1884 11.1838H36.2331C37.954 11.2062 40.6358 11.8433 43.5635 14.772C46.5024 17.7119 47.1505 20.3946 47.1729 22.1272V22.172L50 25L47.1617 27.8393V27.884C47.1505 29.6054 46.5136 32.277 43.5635 35.2281C40.6023 38.1903 37.9316 38.8274 36.1996 38.8386H36.1549L33.3277 41.6667L30.4783 38.8163H30.4336C28.7127 38.7939 26.0308 38.1568 23.1031 35.2281C20.1643 32.2882 19.5161 29.6054 19.4938 27.8728V27.8281L16.6667 25L19.5161 22.1608ZM29.6514 38.2574L29.9642 38.2909L20.019 28.3423L20.0637 28.6553C20.2537 30.1196 20.9912 32.3776 23.4719 34.8592C25.4498 36.8601 27.5394 38.0003 29.6514 38.2574ZM33.3836 37.5978C34.3111 37.0613 34.5458 36.4688 34.4899 36.2006C34.4228 35.9099 33.9982 35.7534 33.3501 35.7534C32.7243 35.7534 32.2997 35.9211 32.2326 36.2006C32.1544 36.5136 32.445 37.0836 33.283 37.5978L33.3389 37.6314L33.3836 37.5978ZM35.2497 38.7939C34.5681 38.7045 33.9312 38.5145 33.3613 38.235L33.3166 38.2126L33.2719 38.235C32.702 38.5033 32.0762 38.6821 31.4057 38.7716L31.1823 38.7939L33.3389 40.9513L35.4732 38.8163L35.2497 38.7939ZM30.7353 38.3132C31.3946 38.2909 32.0203 38.1791 32.5902 37.9667L32.7802 37.8997L32.6238 37.7767C31.9309 37.2401 31.5845 36.603 31.7186 36.0888C31.7968 35.7758 32.1097 35.2616 33.3277 35.2616C34.5681 35.2616 34.881 35.787 34.9592 36.1C35.0933 36.6253 34.7357 37.2625 34.0094 37.7991L33.8529 37.922L34.0429 37.9891C34.6128 38.2015 35.2386 38.3244 35.909 38.3468H35.9537L46.6588 27.6381V27.5934C46.6365 26.945 46.5136 26.3191 46.3013 25.749L46.2342 25.5589L46.1113 25.7154C45.6531 26.3079 45.1279 26.6432 44.6474 26.6432C44.4016 26.6432 43.5859 26.5203 43.5859 25C43.5859 23.4574 44.3904 23.3345 44.6363 23.3345C45.1168 23.3345 45.6643 23.6922 46.1113 24.3182L46.2342 24.4858L46.3013 24.2958C46.5136 23.7257 46.6365 23.0997 46.6588 22.4291V22.3843L35.9761 11.698H35.9314C35.2721 11.7204 34.6463 11.8321 34.0764 12.0445L33.8865 12.1116L34.0429 12.2346C34.7357 12.7711 35.0821 13.4083 34.948 13.9225C34.8698 14.2355 34.5569 14.7496 33.3389 14.7496C32.0986 14.7496 31.7857 14.2243 31.7075 13.9113C31.5734 13.3859 31.9309 12.7488 32.6573 12.2122L32.8137 12.0892L32.6238 12.0222C32.0539 11.8098 31.4281 11.6868 30.7576 11.6645H30.7129L20.0078 22.3732V22.4179C20.0302 23.0662 20.1531 23.6922 20.3654 24.2623L20.4324 24.4523L20.5554 24.2958C21.0135 23.7034 21.5387 23.368 22.0192 23.368C22.2651 23.368 23.0808 23.491 23.0808 25.0112C23.0808 25.5254 22.9914 25.9278 22.8126 26.2185C22.6338 26.5091 22.3544 26.6768 22.0304 26.6768C21.5499 26.6768 21.0023 26.3191 20.5554 25.6931L20.4324 25.5254L20.3654 25.7154C20.1531 26.2855 20.0302 26.9115 20.0078 27.5822V27.6269L30.6906 38.3132H30.7353ZM36.993 38.2909C39.1049 38.0338 41.1945 36.8824 43.2059 34.8704C45.1726 32.903 46.3571 30.7568 46.603 28.6665L46.6365 28.3535L36.6689 38.3244L36.993 38.2909ZM47.1282 27.1574L49.2848 25L47.1393 22.865L47.117 23.0886C47.0276 23.7816 46.8488 24.4188 46.5694 24.9777L46.5471 25.0224L46.5694 25.0671C46.8376 25.6372 47.0276 26.2632 47.117 26.9339L47.1282 27.1574ZM37.0265 11.7427L36.7136 11.7092L46.6588 21.6578L46.6141 21.3448C46.4242 19.8693 45.6867 17.6113 43.2059 15.1297C41.2169 13.14 39.1384 11.9998 37.0265 11.7427ZM45.966 25.0224L45.9325 24.9665C45.4855 24.2064 44.9492 23.8487 44.6363 23.8487C44.5581 23.8487 44.3346 23.8487 44.1893 24.2511C44.0999 24.5194 44.0775 24.8324 44.0775 25.0112C44.0775 25.3577 44.1334 26.1402 44.6363 26.1402C44.8709 26.1402 45.4073 25.9166 45.9213 25.0783L45.966 25.0224ZM33.2942 12.4022C32.3667 12.9388 32.1321 13.5312 32.188 13.7995C32.255 14.0901 32.6796 14.2466 33.3277 14.2466C33.9535 14.2466 34.3781 14.079 34.4452 13.7995C34.5234 13.4865 34.2329 12.9164 33.3948 12.4022L33.3389 12.3687L33.2942 12.4022ZM31.4169 11.2173C32.0986 11.3068 32.7355 11.4968 33.3054 11.7763L33.3501 11.7986L33.3948 11.7763C33.9647 11.508 34.5905 11.3291 35.2609 11.2397L35.4844 11.2173L33.3277 9.05996L31.1934 11.195L31.4169 11.2173ZM29.6849 11.7204C27.5729 11.9775 25.4833 13.1288 23.4719 15.1409C21.5052 17.1082 20.3207 19.2545 20.0749 21.3448L20.0413 21.6578L29.9978 11.6756L29.6849 11.7204ZM20.7118 24.9889L20.7453 25.0448C21.1923 25.8049 21.7287 26.1626 22.0416 26.1626C22.1868 26.1626 22.3098 26.0843 22.3991 25.939C22.4885 25.7937 22.5891 25.5254 22.5891 25C22.5891 24.6535 22.5332 23.871 22.0304 23.871C21.7957 23.871 21.2594 24.0946 20.7453 24.933L20.7118 24.9889ZM20.1307 24.9777L20.1084 24.933C19.8402 24.3629 19.6502 23.7369 19.5608 23.0662L19.5273 22.8426L17.3707 25L19.5161 27.1462L19.5385 26.9227C19.6279 26.2296 19.8067 25.5925 20.086 25.0336L20.1307 24.9777Z" fill="#D76700"/>
<path d="M32.5 25.0001H2.5M2.5 25.0001L13.3333 14.1667M2.5 25.0001L13.3333 35.8334" stroke="#171026" stroke-width="2" stroke-linecap="round" stroke-linejoin="round"/>
</svg>
