<?xml version="1.0" encoding="utf-8"?>
<!-- Generator: Adobe Illustrator 27.2.0, SVG Export Plug-In . SVG Version: 6.00 Build 0)  -->
<svg version="1.1" id="Слой_1" xmlns="http://www.w3.org/2000/svg" xmlns:xlink="http://www.w3.org/1999/xlink" x="0px" y="0px"
	 viewBox="0 0 454 100" style="enable-background:new 0 0 454 100;" xml:space="preserve">
<style type="text/css">
	.st0{fill:#171026;fill-opacity:0.2;}
	.st1{fill:#FEFEFE;}
	.st2{fill:#FFFFFF;}
	.st3{fill:#867197;}
	.st4{display:none;fill:#867197;}
</style>
<circle class="st0" cx="25.2" cy="25" r="25"/>
<path class="st1" d="M29.1,14.8V35h-3.8V18.7l-4.5,2.7l-1.7-2.6l6.6-4C25.8,14.8,29.1,14.8,29.1,14.8z"/>
<circle class="st0" cx="105.2" cy="25" r="25"/>
<path class="st1" d="M104.7,14.4c1.4,0,2.5,0.2,3.5,0.8c1,0.5,1.8,1.2,2.3,2s0.8,1.8,0.8,2.9s-0.2,2.2-0.8,3.3
	c-0.5,1-1.3,2.2-2.4,3.5s-2.8,3-5,5.1h8.6l-0.4,3H98.7v-2.8c2.6-2.6,4.4-4.5,5.5-5.8s1.9-2.3,2.4-3.2c0.5-0.9,0.7-1.8,0.7-2.8
	c0-0.9-0.3-1.6-0.8-2.2c-0.5-0.5-1.2-0.8-2.1-0.8c-0.8,0-1.5,0.2-2.1,0.5s-1.2,0.9-1.8,1.6l-2.3-1.9
	C99.8,15.6,101.9,14.4,104.7,14.4z"/>
<circle class="st0" cx="185.2" cy="25" r="25"/>
<path class="st2" d="M184.6,14.4c1.3,0,2.5,0.2,3.5,0.7s1.7,1.1,2.2,1.9c0.5,0.8,0.8,1.6,0.8,2.6c0,1.2-0.4,2.2-1.1,3.1
	c-0.7,0.8-1.7,1.4-2.9,1.7c1.3,0.1,2.4,0.6,3.3,1.4c0.9,0.8,1.3,2,1.3,3.5c0,1.2-0.3,2.2-0.9,3.1c-0.6,0.9-1.4,1.7-2.5,2.2
	s-2.4,0.8-3.9,0.8c-2.8,0-4.9-1-6.5-2.9l2.1-2c0.7,0.7,1.4,1.2,2,1.5c0.7,0.3,1.4,0.5,2.2,0.5c1.1,0,1.9-0.3,2.6-0.9
	c0.7-0.6,1-1.4,1-2.5c0-1.2-0.3-2-0.9-2.5c-0.6-0.5-1.5-0.8-2.7-0.8h-1.6l0.5-2.7h1.1c1,0,1.8-0.3,2.3-0.8c0.6-0.5,0.9-1.3,0.9-2.2
	c0-0.8-0.3-1.5-0.8-1.9c-0.5-0.5-1.3-0.7-2.2-0.7c-0.8,0-1.5,0.2-2.1,0.5s-1.3,0.7-1.9,1.3l-2.1-2.3
	C180.1,15.3,182.1,14.4,184.6,14.4z"/>
<circle class="st3" cx="265.2" cy="25" r="25"/>
<path class="st1" d="M273.2,27.4v2.9h-2.4V35h-3.8v-4.6h-8.6v-2.6l5.9-13.3l3.3,1.2l-5.2,11.8h4.6l0.4-5.1h3.3v5.1h2.5V27.4z"/>
<circle class="st0" cx="345.2" cy="25" r="25"/>
<path class="st1" d="M350.6,17.7H343v5c1-0.5,2-0.8,3.1-0.8s2.1,0.3,3,0.8s1.6,1.3,2,2.2c0.5,1,0.8,2.1,0.8,3.5s-0.3,2.6-0.9,3.7
	c-0.6,1.1-1.5,1.9-2.6,2.5s-2.5,0.9-4,0.9c-1.3,0-2.5-0.2-3.6-0.7c-1-0.5-2-1.2-2.8-2.1l2.2-2c1.2,1.3,2.5,1.9,4.1,1.9
	c1.1,0,2-0.3,2.7-1s1-1.7,1-3c0-2.5-1.1-3.8-3.2-3.8c-0.5,0-0.9,0.1-1.3,0.2s-0.8,0.3-1.3,0.5h-2.7V14.8h11.7L350.6,17.7z"/>
<circle class="st0" cx="425.2" cy="25" r="25"/>
<path class="st1" d="M427.4,21.6c1.1,0,2,0.3,2.9,0.8s1.6,1.2,2.1,2.2s0.8,2.2,0.8,3.5c0,1.4-0.3,2.7-0.9,3.8
	c-0.6,1.1-1.4,2-2.5,2.6c-1,0.6-2.2,0.9-3.6,0.9c-2.5,0-4.3-0.9-5.5-2.6c-1.2-1.7-1.8-4.1-1.8-7.2c0-2.2,0.3-4.2,1-5.9
	c0.7-1.7,1.6-3,2.9-3.9s2.7-1.4,4.4-1.4c1.7,0,3.1,0.4,4.4,1.3l-1.4,2.4c-0.9-0.5-1.9-0.8-2.9-0.8c-1.3,0-2.3,0.6-3.1,1.7
	c-0.8,1.1-1.2,2.7-1.3,4.7C424,22.3,425.5,21.6,427.4,21.6z M426.1,32.6c1,0,1.8-0.4,2.2-1.2c0.5-0.8,0.8-1.9,0.8-3.2
	c0-1.4-0.2-2.4-0.7-2.9c-0.5-0.6-1.1-0.9-2-0.9c-0.7,0-1.3,0.2-2,0.6c-0.6,0.4-1.1,0.9-1.6,1.5c0,2.2,0.3,3.8,0.8,4.7
	C424.1,32.1,425,32.6,426.1,32.6z"/>
<path class="st4" d="M7.6,70.1c0.7,0.1,1.3,0.4,1.8,0.8s0.7,1,0.7,1.8c0,1.2-0.4,2-1.2,2.5s-2,0.7-3.5,0.7H2v-11h3
	c1.5,0,2.7,0.2,3.5,0.7s1.2,1.2,1.2,2.2c0,0.7-0.2,1.2-0.6,1.6C8.6,69.7,8.1,70,7.6,70.1z M4.2,66.6v2.8h1.2c0.6,0,1-0.1,1.3-0.4
	c0.3-0.2,0.5-0.5,0.5-1s-0.2-0.8-0.5-1s-0.8-0.3-1.6-0.3L4.2,66.6L4.2,66.6z M5.3,74.3c0.7,0,1.3-0.1,1.7-0.3
	c0.4-0.2,0.6-0.6,0.6-1.2c0-1.1-0.7-1.7-2-1.7H4.2v3.2H5.3z M14.6,70.2c1.3,0,2.3,0.3,2.9,0.8s0.9,1.2,0.9,2.2c0,0.9-0.3,1.7-1,2.2
	s-1.5,0.7-2.5,0.7h-3.2v-8.5H14v2.7L14.6,70.2L14.6,70.2z M19.2,67.5h2.3V76h-2.3V67.5z M14.6,74.5c0.9,0,1.4-0.5,1.4-1.4
	c0-0.5-0.1-0.8-0.4-1c-0.2-0.2-0.6-0.3-1.2-0.3h-0.5v2.8L14.6,74.5L14.6,74.5z M28,68.1c0.6,0,1.2,0.2,1.6,0.5
	c0.5,0.3,0.9,0.8,1.1,1.4c0.3,0.6,0.4,1.3,0.4,2.1c0,0.9-0.2,1.6-0.5,2.3c-0.3,0.6-0.8,1.1-1.4,1.5c-0.6,0.3-1.3,0.5-2.1,0.5
	c-1.2,0-2.2-0.4-2.9-1.2c-0.7-0.8-1.1-2.1-1.1-3.8c0-1.2,0.1-2.2,0.3-3c0.2-0.8,0.5-1.4,1-1.9s1.2-0.9,2.1-1.2
	c0.7-0.2,1.2-0.4,1.5-0.5c0.4-0.2,0.8-0.4,1.2-0.7l0.8,1.5c-0.4,0.2-0.8,0.4-1.2,0.6s-0.9,0.4-1.5,0.6c-0.5,0.2-0.9,0.3-1.2,0.6
	c-0.3,0.2-0.5,0.5-0.7,0.9s-0.3,0.9-0.3,1.5C26.1,68.6,27,68.1,28,68.1z M27.2,74.6c0.5,0,0.9-0.2,1.2-0.5c0.3-0.4,0.4-1,0.4-1.9
	c0-0.8-0.1-1.4-0.4-1.8c-0.2-0.4-0.6-0.5-1.1-0.5c-0.4,0-0.7,0.1-1,0.3c-0.3,0.2-0.6,0.5-0.8,0.9V72c0,0.8,0.1,1.5,0.4,1.9
	C26.4,74.4,26.8,74.6,27.2,74.6z M36.5,67.3c1.3,0,2.3,0.4,3,1.2c0.7,0.8,1.1,1.9,1.1,3.3c0,0.9-0.2,1.7-0.5,2.4
	c-0.3,0.7-0.8,1.2-1.4,1.6c-0.6,0.4-1.3,0.6-2.2,0.6c-1.3,0-2.3-0.4-3-1.2c-0.7-0.8-1.1-1.9-1.1-3.3c0-0.9,0.2-1.7,0.5-2.4
	c0.3-0.7,0.8-1.2,1.4-1.6S35.8,67.3,36.5,67.3z M36.5,69c-0.6,0-1,0.2-1.3,0.7c-0.3,0.4-0.4,1.2-0.4,2.1s0.1,1.7,0.4,2.1
	c0.3,0.4,0.7,0.7,1.3,0.7s1-0.2,1.3-0.7s0.4-1.2,0.4-2.1s-0.1-1.7-0.4-2.1C37.5,69.2,37.2,69,36.5,69z M47,67.3
	c1.1,0,1.9,0.4,2.4,1.2c0.5,0.8,0.8,1.9,0.8,3.3c0,0.9-0.1,1.6-0.4,2.3c-0.3,0.7-0.7,1.2-1.2,1.6s-1.1,0.6-1.8,0.6
	c-0.9,0-1.6-0.3-2.1-0.9v3.9l-2.3,0.3v-12h2l0.1,1c0.3-0.4,0.7-0.7,1.1-0.9C46,67.4,46.5,67.3,47,67.3z M46,74.6
	c1.1,0,1.7-0.9,1.7-2.8c0-1-0.1-1.7-0.4-2.2c-0.2-0.4-0.6-0.6-1.1-0.6c-0.3,0-0.6,0.1-0.9,0.3c-0.3,0.2-0.5,0.5-0.7,0.8v3.7
	C45,74.3,45.5,74.6,46,74.6z M15.1,95h-2.2v-3.2c0-0.6,0-1.2,0.1-1.7s0.1-1,0.2-1.3l-3,6.2H7.8v-8.5h2.2v3.2c0,0.6,0,1.1-0.1,1.7
	s-0.1,1-0.2,1.3l3-6.2h2.4V95z M19.6,95h-2.3v-8.5h5.8l-0.3,1.7h-3.3L19.6,95L19.6,95z M28.9,86.3c1.1,0,1.9,0.4,2.4,1.2
	c0.5,0.8,0.8,1.9,0.8,3.3c0,0.9-0.1,1.6-0.4,2.3c-0.3,0.7-0.7,1.2-1.2,1.6s-1.1,0.6-1.8,0.6c-0.9,0-1.6-0.3-2.1-0.9v3.9l-2.3,0.2
	v-12h2l0.1,1c0.3-0.4,0.7-0.7,1.1-0.9C28,86.4,28.4,86.3,28.9,86.3z M28,93.6c1.1,0,1.7-0.9,1.7-2.8c0-1-0.1-1.7-0.4-2.2
	c-0.2-0.4-0.6-0.6-1.1-0.6c-0.3,0-0.6,0.1-0.9,0.3c-0.3,0.2-0.5,0.5-0.7,0.8v3.7C26.9,93.3,27.4,93.6,28,93.6z M36.7,89.2
	c1.3,0,2.3,0.3,2.9,0.8c0.6,0.5,0.9,1.2,0.9,2.2c0,0.9-0.3,1.7-1,2.2S38,95.1,37,95.1h-3.2v-8.5h2.3v2.7L36.7,89.2L36.7,89.2z
	 M41.3,86.5h2.3V95h-2.3V86.5z M36.8,93.5c0.9,0,1.4-0.5,1.4-1.4c0-0.5-0.1-0.8-0.4-1c-0.2-0.2-0.6-0.3-1.2-0.3H36v2.8L36.8,93.5
	L36.8,93.5z"/>
<path class="st4" d="M62.2,73.9c1.4,0,2.6,0.3,3.3,0.9c0.8,0.6,1.2,1.5,1.2,2.7s-0.4,2.2-1.2,2.8c-0.8,0.6-1.8,0.9-3.2,0.9H61V85
	h-2.4V73.9H62.2z M62.2,79.5c0.7,0,1.2-0.2,1.6-0.5c0.4-0.3,0.5-0.8,0.5-1.5c0-1.2-0.7-1.9-2.1-1.9h-1v3.9H62.2z M74.9,80.6
	c0,0.1,0,0.4,0,0.9h-5.3c0.1,0.8,0.3,1.3,0.6,1.6c0.3,0.3,0.8,0.5,1.4,0.5c0.4,0,0.7-0.1,1-0.2s0.7-0.3,1-0.6l0.9,1.3
	c-0.9,0.8-2,1.2-3.2,1.2c-1.3,0-2.4-0.4-3.1-1.2c-0.7-0.8-1.1-1.9-1.1-3.2c0-0.9,0.1-1.6,0.4-2.3c0.3-0.7,0.8-1.2,1.3-1.6
	c0.6-0.4,1.3-0.6,2.1-0.6c1.2,0,2.1,0.4,2.8,1.1C74.6,78.2,74.9,79.2,74.9,80.6z M72.7,79.9c0-1.4-0.5-2.1-1.5-2.1
	c-0.5,0-0.8,0.2-1.1,0.5c-0.3,0.3-0.4,0.9-0.5,1.7L72.7,79.9L72.7,79.9z M78.8,85h-2.3v-8.5h5.8L82,78.2h-3.3V85H78.8z M90.8,85
	h-2.2v-3.2c0-0.6,0-1.2,0.1-1.7s0.1-1,0.2-1.3l-3,6.2h-2.4v-8.5h2.2v3.2c0,0.6,0,1.1-0.1,1.7s-0.1,1-0.2,1.3l3-6.2h2.4V85z
	 M96.4,76.3c0.6,0,1.1,0.1,1.5,0.3c0.5,0.2,0.9,0.4,1.3,0.8l-1,1.3c-0.3-0.2-0.5-0.4-0.8-0.5c-0.2-0.1-0.5-0.2-0.8-0.2
	c-1.2,0-1.8,0.9-1.8,2.8c0,0.9,0.2,1.6,0.5,2s0.8,0.6,1.3,0.6c0.3,0,0.6,0,0.8-0.1c0.2-0.1,0.5-0.3,0.9-0.5l1,1.4
	c-0.8,0.7-1.7,1-2.8,1c-0.8,0-1.6-0.2-2.2-0.5c-0.6-0.4-1.1-0.9-1.4-1.5c-0.3-0.7-0.5-1.5-0.5-2.4s0.2-1.7,0.5-2.4
	c0.3-0.7,0.8-1.2,1.4-1.6C94.9,76.5,95.7,76.3,96.4,76.3z M107.1,76.5l-0.3,1.7h-2.4V85H102v-6.8h-2.5v-1.7H107.1z M112.7,76.3
	c1.1,0,1.9,0.4,2.4,1.2c0.5,0.8,0.8,1.9,0.8,3.3c0,0.9-0.1,1.6-0.4,2.3c-0.3,0.7-0.7,1.2-1.2,1.6s-1.1,0.6-1.8,0.6
	c-0.9,0-1.6-0.3-2.1-0.9v3.9l-2.3,0.3v-12h2l0.1,1c0.3-0.4,0.7-0.7,1.1-0.9C111.8,76.4,112.2,76.3,112.7,76.3z M111.8,83.6
	c1.1,0,1.7-0.9,1.7-2.8c0-1-0.1-1.7-0.4-2.2c-0.2-0.4-0.6-0.6-1.1-0.6c-0.3,0-0.6,0.1-0.9,0.3c-0.3,0.2-0.5,0.5-0.7,0.8v3.7
	C110.7,83.3,111.2,83.6,111.8,83.6z M123.9,82.6c0,0.3,0,0.6,0.1,0.7s0.3,0.3,0.5,0.3l-0.5,1.5c-0.5,0-0.9-0.2-1.2-0.4
	c-0.3-0.2-0.5-0.5-0.7-0.9c-0.6,0.9-1.4,1.3-2.5,1.3c-0.8,0-1.5-0.2-2-0.7s-0.7-1.1-0.7-1.9c0-0.9,0.3-1.6,1-2.1s1.6-0.7,2.9-0.7h1
	v-0.4c0-0.5-0.1-0.9-0.4-1.1c-0.2-0.2-0.6-0.3-1.2-0.3s-1.3,0.1-2.2,0.4l-0.5-1.5c1.1-0.4,2.1-0.6,3.1-0.6c1.2,0,2,0.3,2.5,0.8
	s0.8,1.2,0.8,2.2L123.9,82.6L123.9,82.6z M120.2,83.6c0.6,0,1.1-0.3,1.5-0.9v-1.6h-0.8c-1.2,0-1.8,0.5-1.8,1.4
	c0,0.4,0.1,0.7,0.3,0.9C119.6,83.5,119.8,83.6,120.2,83.6z M133.2,83.3h1.3v4.3h-1.6l-0.3-2.6h-6.4v-8.5h2.3v6.8h2.5v-6.8h2.3
	L133.2,83.3L133.2,83.3z M142.9,85h-2.2v-3.2c0-0.6,0-1.2,0.1-1.7s0.1-1,0.2-1.3l-3,6.2h-2.4v-8.5h2.2v3.2c0,0.6,0,1.1-0.1,1.7
	s-0.1,1-0.2,1.3l3-6.2h2.4V85z M151.8,76.5V85h-2.3v-3h-1.2l-1.6,3h-2.4l2-3.6c-0.9-0.5-1.4-1.2-1.4-2.2c0-0.9,0.3-1.6,1-2
	c0.7-0.5,1.6-0.7,2.8-0.7C148.7,76.5,151.8,76.5,151.8,76.5z M149.6,80.6V78h-0.9c-1,0-1.5,0.4-1.5,1.2c0,0.9,0.5,1.3,1.4,1.3
	L149.6,80.6L149.6,80.6z"/>
<path class="st4" d="M153.4,64.9V76H151v-9.2h-3.6V76H145V64.9H153.4z M162.1,73.6c0,0.3,0,0.6,0.1,0.7s0.3,0.3,0.5,0.3l-0.5,1.5
	c-0.5,0-0.9-0.2-1.2-0.4c-0.3-0.2-0.5-0.5-0.7-0.9c-0.6,0.9-1.4,1.3-2.5,1.3c-0.8,0-1.5-0.2-2-0.7s-0.7-1.1-0.7-1.9
	c0-0.9,0.3-1.6,1-2.1s1.6-0.7,2.9-0.7h1v-0.4c0-0.5-0.1-0.9-0.4-1.1c-0.2-0.2-0.6-0.3-1.2-0.3c-0.6,0-1.3,0.1-2.2,0.4l-0.5-1.5
	c1.1-0.4,2.1-0.6,3.1-0.6c1.2,0,2,0.3,2.5,0.8s0.8,1.2,0.8,2.2L162.1,73.6L162.1,73.6z M158.4,74.6c0.6,0,1.1-0.3,1.5-0.9v-1.6h-0.8
	c-1.2,0-1.8,0.5-1.8,1.4c0,0.4,0.1,0.7,0.3,0.9C157.8,74.5,158.1,74.6,158.4,74.6z M168.9,67.3c1.1,0,1.9,0.4,2.4,1.2
	c0.5,0.8,0.8,1.9,0.8,3.3c0,0.9-0.1,1.6-0.4,2.3c-0.3,0.7-0.7,1.2-1.2,1.6s-1.1,0.6-1.8,0.6c-0.9,0-1.6-0.3-2.1-0.9v3.9l-2.3,0.3
	v-12h2l0.1,1c0.3-0.4,0.7-0.7,1.1-0.9C168.1,67.4,168.6,67.3,168.9,67.3z M168.1,74.6c1.1,0,1.7-0.9,1.7-2.8c0-1-0.1-1.7-0.4-2.2
	s-0.6-0.6-1.1-0.6c-0.3,0-0.6,0.1-0.9,0.3c-0.3,0.2-0.5,0.5-0.7,0.8v3.7C167.1,74.3,167.6,74.6,168.1,74.6z M180.2,73.6
	c0,0.3,0,0.6,0.1,0.7s0.3,0.3,0.5,0.3l-0.5,1.5c-0.5,0-0.9-0.2-1.2-0.4c-0.3-0.2-0.5-0.5-0.7-0.9c-0.6,0.9-1.4,1.3-2.5,1.3
	c-0.8,0-1.5-0.2-2-0.7s-0.7-1.1-0.7-1.9c0-0.9,0.3-1.6,1-2.1s1.6-0.7,2.9-0.7h1v-0.4c0-0.5-0.1-0.9-0.4-1.1
	c-0.2-0.2-0.6-0.3-1.2-0.3c-0.6,0-1.3,0.1-2.2,0.4l-0.5-1.5c1.1-0.4,2.1-0.6,3.1-0.6c1.2,0,2,0.3,2.5,0.8s0.8,1.2,0.8,2.2
	L180.2,73.6L180.2,73.6z M176.6,74.6c0.6,0,1.1-0.3,1.5-0.9v-1.6h-0.8c-1.2,0-1.8,0.5-1.8,1.4c0,0.4,0.1,0.7,0.3,0.9
	C175.9,74.5,176.1,74.6,176.6,74.6z M191.6,76h-2.2l-0.2-3.3c0-0.5,0-0.9,0-1.3c0-0.3,0-0.9,0.1-1.9l-1.5,5.6h-1.9l-1.4-5.6
	c0,0.6,0.1,1.2,0.1,1.8c0,0.3,0,0.8,0,1.4l-0.2,3.3h-2.2l0.7-8.5h2.7l1.3,5.6l1.4-5.6h2.7L191.6,76z M200.4,71.6c0,0.1,0,0.4,0,0.9
	h-5.3c0.1,0.8,0.3,1.3,0.6,1.6c0.3,0.3,0.8,0.5,1.4,0.5c0.4,0,0.7-0.1,1-0.2s0.7-0.3,1-0.6l0.9,1.3c-0.9,0.8-2,1.2-3.2,1.2
	c-1.3,0-2.4-0.4-3.1-1.2c-0.7-0.8-1.1-1.9-1.1-3.2c0-0.9,0.1-1.6,0.4-2.3c0.3-0.7,0.8-1.2,1.3-1.6c0.6-0.4,1.3-0.6,2.1-0.6
	c1.2,0,2.1,0.4,2.8,1.1S200.4,70.2,200.4,71.6z M198.1,70.9c0-1.4-0.5-2.1-1.5-2.1c-0.5,0-0.8,0.2-1.1,0.5s-0.4,0.9-0.5,1.7
	L198.1,70.9L198.1,70.9z M208.1,67.5l-0.3,1.7h-2.4V76h-2.3v-6.8h-2.5v-1.7H208.1z M213.8,67.3c1.1,0,1.9,0.4,2.4,1.2
	c0.5,0.8,0.8,1.9,0.8,3.3c0,0.9-0.1,1.6-0.4,2.3c-0.3,0.7-0.7,1.2-1.2,1.6s-1.1,0.6-1.8,0.6c-0.9,0-1.6-0.3-2.1-0.9v3.9l-2.3,0.3
	v-12h2l0.1,1c0.3-0.4,0.7-0.7,1.1-0.9C212.9,67.4,213.2,67.3,213.8,67.3z M212.9,74.6c1.1,0,1.7-0.9,1.7-2.8c0-1-0.1-1.7-0.4-2.2
	c-0.2-0.4-0.6-0.6-1.1-0.6c-0.3,0-0.6,0.1-0.9,0.3c-0.3,0.2-0.5,0.5-0.7,0.8v3.7C211.8,74.3,212.2,74.6,212.9,74.6z M221.6,70.2
	c1.3,0,2.3,0.3,2.9,0.8c0.6,0.5,0.9,1.2,0.9,2.2c0,0.9-0.3,1.7-1,2.2s-1.5,0.7-2.5,0.7h-3.2v-8.5h2.3v2.7L221.6,70.2L221.6,70.2z
	 M226.2,67.5h2.3V76h-2.3V67.5z M221.6,74.5c0.9,0,1.4-0.5,1.4-1.4c0-0.5-0.1-0.8-0.4-1c-0.2-0.2-0.6-0.3-1.2-0.3h-0.5v2.8
	L221.6,74.5L221.6,74.5z M165.2,86.3c0.9,0,1.7,0.2,2.3,0.6s0.9,1,0.9,1.7c0,0.5-0.1,0.9-0.4,1.2c-0.3,0.3-0.8,0.5-1.4,0.7
	c0.8,0.1,1.3,0.3,1.7,0.7c0.4,0.3,0.6,0.8,0.6,1.4c0,0.9-0.4,1.6-1.1,2c-0.7,0.5-1.6,0.7-2.8,0.7c-1.4,0-2.5-0.3-3.4-1l1.1-1.3
	c0.4,0.2,0.7,0.4,1.1,0.5c0.3,0.1,0.7,0.1,1.2,0.1c1,0,1.6-0.4,1.6-1.2c0-0.4-0.1-0.6-0.4-0.8c-0.3-0.2-0.7-0.3-1.2-0.3h-1.3
	l0.1-1.5h1c0.5,0,0.8-0.1,1.1-0.3c0.3-0.2,0.4-0.4,0.4-0.8c0-0.3-0.1-0.6-0.4-0.7c-0.2-0.2-0.5-0.2-0.9-0.2s-0.7,0.1-1,0.2
	s-0.6,0.2-0.9,0.4l-1.1-1.2c0.5-0.3,1-0.6,1.5-0.7C164.1,86.3,164.6,86.3,165.2,86.3z M177.1,92.6c0,0.3,0,0.6,0.1,0.7
	s0.3,0.3,0.5,0.3l-0.5,1.5c-0.5,0-0.9-0.2-1.2-0.4c-0.3-0.2-0.5-0.5-0.7-0.9c-0.6,0.9-1.4,1.3-2.5,1.3c-0.8,0-1.5-0.2-2-0.7
	s-0.7-1.1-0.7-1.9c0-0.9,0.3-1.6,1-2.1s1.6-0.7,2.9-0.7h1v-0.4c0-0.5-0.1-0.9-0.4-1.1c-0.2-0.2-0.6-0.3-1.2-0.3
	c-0.6,0-1.3,0.1-2.2,0.4l-0.5-1.5c1.1-0.4,2.1-0.6,3.1-0.6c1.2,0,2,0.3,2.5,0.8s0.8,1.2,0.8,2.2L177.1,92.6L177.1,92.6z M173.2,93.6
	c0.6,0,1.1-0.3,1.5-0.9v-1.6h-0.8c-1.2,0-1.8,0.5-1.8,1.4c0,0.4,0.1,0.7,0.3,0.9C172.6,93.5,172.9,93.6,173.2,93.6z M186.6,86.5
	l-2.3,3.9l2.6,4.5h-2.4l-2-3.7h-0.8V95h-2.4v-8.5h2.3v3.3h0.9l1.9-3.3H186.6z M194.1,92.6c0,0.3,0,0.6,0.1,0.7s0.3,0.3,0.5,0.3
	l-0.5,1.5c-0.5,0-0.9-0.2-1.2-0.4c-0.3-0.2-0.5-0.5-0.7-0.9c-0.6,0.9-1.4,1.3-2.5,1.3c-0.8,0-1.5-0.2-2-0.7s-0.7-1.1-0.7-1.9
	c0-0.9,0.3-1.6,1-2.1s1.6-0.7,2.9-0.7h1v-0.4c0-0.5-0.1-0.9-0.4-1.1c-0.2-0.2-0.6-0.3-1.2-0.3c-0.6,0-1.3,0.1-2.2,0.4l-0.5-1.5
	c1.1-0.4,2.1-0.6,3.1-0.6c1.2,0,2,0.3,2.5,0.8s0.8,1.2,0.8,2.2L194.1,92.6L194.1,92.6z M190.4,93.6c0.6,0,1.1-0.3,1.5-0.9v-1.6h-0.7
	c-1.2,0-1.8,0.5-1.8,1.4c0,0.4,0.1,0.7,0.3,0.9C189.9,93.5,190.1,93.6,190.4,93.6z M199.1,86.3c0.9,0,1.7,0.2,2.3,0.6s0.9,1,0.9,1.7
	c0,0.5-0.1,0.9-0.4,1.2c-0.3,0.3-0.8,0.5-1.4,0.7c0.8,0.1,1.3,0.3,1.7,0.7c0.4,0.3,0.6,0.8,0.6,1.4c0,0.9-0.4,1.6-1.1,2
	c-0.7,0.5-1.6,0.7-2.8,0.7c-1.4,0-2.5-0.3-3.4-1l1.1-1.3c0.4,0.2,0.7,0.4,1.1,0.5c0.3,0.1,0.7,0.1,1.2,0.1c1,0,1.6-0.4,1.6-1.2
	c0-0.4-0.1-0.6-0.4-0.8c-0.3-0.2-0.7-0.3-1.2-0.3h-1.3l0.1-1.5h1c0.5,0,0.8-0.1,1.1-0.3c0.3-0.2,0.4-0.4,0.4-0.8
	c0-0.3-0.1-0.6-0.4-0.7c-0.2-0.2-0.5-0.2-0.9-0.2s-0.7,0.1-1,0.2s-0.6,0.2-0.9,0.4l-1.1-1.2c0.5-0.3,1-0.6,1.5-0.7
	C197.8,86.3,198.4,86.3,199.1,86.3z M210.8,92.6c0,0.3,0,0.6,0.1,0.7s0.3,0.3,0.5,0.3l-0.5,1.5c-0.5,0-0.9-0.2-1.2-0.4
	c-0.3-0.2-0.5-0.5-0.7-0.9c-0.6,0.9-1.4,1.3-2.5,1.3c-0.8,0-1.5-0.2-2-0.7s-0.7-1.1-0.7-1.9c0-0.9,0.3-1.6,1-2.1s1.6-0.7,2.9-0.7h1
	v-0.4c0-0.5-0.1-0.9-0.4-1.1c-0.2-0.2-0.6-0.3-1.2-0.3c-0.6,0-1.3,0.1-2.2,0.4l-0.5-1.5c1.1-0.4,2.1-0.6,3.1-0.6
	c1.2,0,2,0.3,2.5,0.8s0.8,1.2,0.8,2.2L210.8,92.6L210.8,92.6z M207.1,93.6c0.6,0,1.1-0.3,1.5-0.9v-1.6h-0.8c-1.2,0-1.8,0.5-1.8,1.4
	c0,0.4,0.1,0.7,0.3,0.9C206.4,93.5,206.6,93.6,207.1,93.6z"/>
<path class="st3" d="M243.9,73.7c1,0,1.9,0.2,2.6,0.7c0.7,0.4,1.3,1.1,1.7,2s0.6,1.9,0.6,3.1s-0.2,2.2-0.6,3.1c-0.4,0.9-1,1.5-1.7,2
	s-1.6,0.7-2.6,0.7s-1.9-0.2-2.6-0.7c-0.7-0.5-1.3-1.1-1.7-2s-0.6-1.9-0.6-3.1s0.2-2.2,0.6-3.1c0.4-0.9,1-1.5,1.7-2
	C242.1,73.9,242.9,73.7,243.9,73.7z M243.9,75.4c-0.8,0-1.4,0.3-1.8,1c-0.4,0.6-0.6,1.7-0.6,3.1s0.2,2.4,0.6,3.1c0.4,0.6,1,1,1.8,1
	s1.4-0.3,1.8-0.9c0.4-0.6,0.6-1.7,0.6-3.1s-0.2-2.4-0.6-3.1C245.4,75.8,244.9,75.4,243.9,75.4z M255.4,85v-6.8h-2.6V85h-2.3v-8.5
	h7.1V85H255.4z M266.9,76.5V85h-2.3v-6.8h-1.9l-0.2,2.1c-0.1,1.2-0.2,2.1-0.4,2.7c-0.1,0.6-0.4,1.1-0.8,1.4s-0.9,0.6-1.7,0.8
	l-0.5-1.7c0.4-0.1,0.6-0.3,0.8-0.5c0.1-0.2,0.3-0.5,0.3-0.9c0.1-0.4,0.1-1.1,0.2-2l0.3-3.6H266.9z M275.6,82.6c0,0.3,0,0.6,0.1,0.7
	s0.3,0.3,0.5,0.3l-0.5,1.5c-0.5,0-0.9-0.2-1.2-0.4c-0.3-0.2-0.5-0.5-0.7-0.9c-0.6,0.9-1.4,1.3-2.5,1.3c-0.8,0-1.5-0.2-2-0.7
	s-0.7-1.1-0.7-1.9c0-0.9,0.3-1.6,1-2.1s1.6-0.7,2.9-0.7h1v-0.4c0-0.5-0.1-0.9-0.4-1.1c-0.2-0.2-0.6-0.3-1.2-0.3s-1.3,0.1-2.2,0.4
	l-0.5-1.5c1.1-0.4,2.1-0.6,3.1-0.6c1.2,0,2,0.3,2.5,0.8s0.8,1.2,0.8,2.2L275.6,82.6L275.6,82.6z M271.9,83.6c0.6,0,1.1-0.3,1.5-0.9
	v-1.6h-0.8c-1.2,0-1.8,0.5-1.8,1.4c0,0.4,0.1,0.7,0.3,0.9C271.2,83.5,271.5,83.6,271.9,83.6z M284,76.5l-0.3,1.7h-2.4V85h-2.3v-6.8
	h-2.5v-1.7H284z M290.9,82.6c0,0.3,0,0.6,0.1,0.7s0.3,0.3,0.5,0.3l-0.5,1.5c-0.5,0-0.9-0.2-1.2-0.4c-0.3-0.2-0.5-0.5-0.7-0.9
	c-0.6,0.9-1.4,1.3-2.5,1.3c-0.8,0-1.5-0.2-2-0.7s-0.7-1.1-0.7-1.9c0-0.9,0.3-1.6,1-2.1s1.6-0.7,2.9-0.7h1v-0.4
	c0-0.5-0.1-0.9-0.4-1.1s-0.6-0.3-1.2-0.3s-1.3,0.1-2.2,0.4l-0.5-1.5c1.1-0.4,2.1-0.6,3.1-0.6c1.2,0,2,0.3,2.5,0.8s0.8,1.2,0.8,2.2
	L290.9,82.6L290.9,82.6z M287.1,83.6c0.6,0,1.1-0.3,1.5-0.9v-1.6h-0.8c-1.2,0-1.8,0.5-1.8,1.4c0,0.4,0.1,0.7,0.3,0.9
	C286.5,83.5,286.9,83.6,287.1,83.6z"/>
<path class="st4" d="M295,73.9V85h-2.4v-9.2H289V85h-2.4V73.9H295z M300.9,76.3c1.3,0,2.3,0.4,3,1.2c0.7,0.8,1.1,1.9,1.1,3.3
	c0,0.9-0.2,1.7-0.5,2.4c-0.3,0.7-0.8,1.2-1.4,1.6s-1.3,0.6-2.2,0.6c-1.3,0-2.3-0.4-3-1.2c-0.7-0.8-1.1-1.9-1.1-3.3
	c0-0.9,0.2-1.7,0.5-2.4c0.3-0.7,0.8-1.2,1.4-1.6S300,76.3,300.9,76.3z M300.9,78c-0.6,0-1,0.2-1.3,0.7c-0.3,0.4-0.4,1.2-0.4,2.1
	s0.1,1.7,0.4,2.1s0.7,0.7,1.3,0.7c0.6,0,1-0.2,1.3-0.7s0.4-1.2,0.4-2.1s-0.1-1.7-0.4-2.1C301.9,78.2,301.5,78,300.9,78z M314,83.3
	v4.3h-1.6l-0.3-2.6h-4.8l-0.3,2.6h-1.6v-4.3h0.5c0.2-0.1,0.4-0.3,0.5-0.5s0.3-0.6,0.4-1.1s0.2-1.2,0.3-2.2l0.2-2.9h5.8v6.8h0.9V83.3
	z M311,78.1h-1.7l-0.1,1.2c-0.1,0.9-0.2,1.6-0.3,2.1c-0.1,0.5-0.3,0.9-0.4,1.2c-0.2,0.3-0.4,0.5-0.8,0.7h3.3V78.1z M319.6,77.1
	c0.6,0,1.2,0.2,1.6,0.5c0.5,0.3,0.9,0.8,1.1,1.4c0.3,0.6,0.4,1.3,0.4,2.1c0,0.9-0.2,1.6-0.5,2.3c-0.3,0.6-0.8,1.1-1.4,1.5
	c-0.6,0.3-1.3,0.5-2.1,0.5c-1.2,0-2.2-0.4-2.9-1.2c-0.7-0.8-1.1-2.1-1.1-3.8c0-1.2,0.1-2.2,0.3-3c0.2-0.8,0.5-1.4,1-1.9
	s1.2-0.9,2.1-1.2c0.6-0.2,1.2-0.4,1.5-0.5c0.4-0.2,0.8-0.4,1.2-0.7l0.8,1.5c-0.4,0.2-0.8,0.4-1.2,0.6c-0.4,0.2-0.9,0.4-1.5,0.6
	c-0.5,0.2-0.9,0.3-1.2,0.6c-0.3,0.2-0.5,0.5-0.7,0.9s-0.3,0.9-0.3,1.5C317.6,77.6,318.5,77.1,319.6,77.1z M318.9,83.6
	c0.5,0,0.9-0.2,1.2-0.5c0.3-0.4,0.4-1,0.4-1.9c0-0.8-0.1-1.4-0.4-1.8c-0.2-0.4-0.6-0.5-1.1-0.5c-0.4,0-0.7,0.1-1,0.3
	c-0.3,0.2-0.6,0.5-0.8,0.9V81c0,0.8,0.1,1.5,0.4,1.9C318,83.4,318.4,83.6,318.9,83.6z M328.1,76.3c1.3,0,2.3,0.4,3,1.2
	c0.7,0.8,1.1,1.9,1.1,3.3c0,0.9-0.2,1.7-0.5,2.4c-0.3,0.7-0.8,1.2-1.4,1.6s-1.3,0.6-2.2,0.6c-1.3,0-2.3-0.4-3-1.2
	c-0.7-0.8-1.1-1.9-1.1-3.3c0-0.9,0.2-1.7,0.5-2.4c0.3-0.7,0.8-1.2,1.4-1.6S327.2,76.3,328.1,76.3z M328.1,78c-0.6,0-1,0.2-1.3,0.7
	c-0.3,0.4-0.4,1.2-0.4,2.1s0.1,1.7,0.4,2.1s0.7,0.7,1.3,0.7c0.6,0,1-0.2,1.3-0.7s0.4-1.2,0.4-2.1s-0.1-1.7-0.4-2.1
	C329.1,78.2,328.6,78,328.1,78z M338.5,76.3c1.1,0,1.9,0.4,2.4,1.2c0.5,0.8,0.8,1.9,0.8,3.3c0,0.9-0.1,1.6-0.4,2.3
	c-0.3,0.7-0.7,1.2-1.2,1.6s-1.1,0.6-1.8,0.6c-0.9,0-1.6-0.3-2.1-0.9v3.9l-2.3,0.3v-12h2l0.1,1c0.3-0.4,0.7-0.7,1.1-0.9
	C337.5,76.4,338,76.3,338.5,76.3z M337.5,83.6c1.1,0,1.7-0.9,1.7-2.8c0-1-0.1-1.7-0.4-2.2c-0.2-0.4-0.6-0.6-1.1-0.6
	c-0.3,0-0.6,0.1-0.9,0.3c-0.3,0.2-0.5,0.5-0.7,0.8v3.7C336.5,83.3,337,83.6,337.5,83.6z M351.6,77.1c0.6,0,1.2,0.2,1.6,0.5
	c0.5,0.3,0.9,0.8,1.1,1.4c0.3,0.6,0.4,1.3,0.4,2.1c0,0.9-0.2,1.6-0.5,2.3c-0.3,0.6-0.8,1.1-1.4,1.5c-0.6,0.3-1.3,0.5-2.1,0.5
	c-1.2,0-2.2-0.4-2.9-1.2c-0.7-0.8-1.1-2.1-1.1-3.8c0-1.2,0.1-2.2,0.3-3s0.5-1.4,1-1.9s1.2-0.9,2.1-1.2c0.7-0.2,1.2-0.4,1.5-0.5
	c0.4-0.2,0.8-0.4,1.2-0.7l0.8,1.5c-0.4,0.2-0.8,0.4-1.2,0.6c-0.4,0.2-0.9,0.4-1.5,0.6c-0.5,0.2-0.9,0.3-1.2,0.6
	c-0.3,0.2-0.5,0.5-0.7,0.9s-0.3,0.9-0.3,1.5C349.6,77.6,350.5,77.1,351.6,77.1z M350.9,83.6c0.5,0,0.9-0.2,1.2-0.5
	c0.3-0.4,0.4-1,0.4-1.9c0-0.8-0.1-1.4-0.4-1.8c-0.2-0.4-0.6-0.5-1.1-0.5c-0.4,0-0.7,0.1-1,0.3c-0.3,0.2-0.6,0.5-0.8,0.9V81
	c0,0.8,0.1,1.5,0.4,1.9C350,83.4,350.4,83.6,350.9,83.6z M360.8,85c-0.3,1.1-0.9,1.9-1.6,2.5s-1.7,0.9-3,1l-0.2-1.6
	c0.8-0.1,1.4-0.3,1.8-0.6c0.4-0.3,0.7-0.7,0.9-1.3h-0.8l-2.6-8.5h2.4l1.7,7l1.8-7h2.4L360.8,85z M368,76.3c0.6,0,1.1,0.1,1.5,0.3
	c0.5,0.2,0.9,0.4,1.3,0.8l-1,1.3c-0.3-0.2-0.5-0.4-0.8-0.5s-0.5-0.1-0.8-0.1c-1.2,0-1.8,0.9-1.8,2.8c0,0.9,0.2,1.6,0.5,2
	s0.8,0.6,1.3,0.6c0.3,0,0.6,0,0.8-0.1c0.2-0.1,0.5-0.3,0.9-0.5l1,1.4c-0.8,0.7-1.7,1-2.8,1c-0.8,0-1.6-0.2-2.2-0.5
	c-0.6-0.4-1.1-0.9-1.4-1.5c-0.3-0.7-0.5-1.5-0.5-2.4s0.2-1.7,0.5-2.4c0.3-0.7,0.8-1.2,1.4-1.6C366.5,76.5,367.2,76.3,368,76.3z
	 M378.5,76.5l-0.3,1.7h-2.4V85h-2.3v-6.8h-2.5v-1.7H378.5z M386.4,80.6c0,0.1,0,0.4,0,0.9h-5.3c0.1,0.8,0.3,1.3,0.6,1.6
	s0.8,0.5,1.4,0.5c0.4,0,0.7-0.1,1-0.2s0.7-0.3,1-0.6l0.9,1.3c-0.9,0.8-2,1.2-3.2,1.2c-1.3,0-2.4-0.4-3.1-1.2
	c-0.7-0.8-1.1-1.9-1.1-3.2c0-0.9,0.1-1.6,0.4-2.3c0.3-0.7,0.8-1.2,1.3-1.6c0.6-0.4,1.3-0.6,2.1-0.6c1.2,0,2.1,0.4,2.8,1.1
	C386,78.2,386.4,79.2,386.4,80.6z M384.1,79.9c0-1.4-0.5-2.1-1.5-2.1c-0.5,0-0.8,0.2-1.1,0.5c-0.3,0.3-0.4,0.9-0.5,1.7L384.1,79.9
	L384.1,79.9z M392.5,76.3c1.1,0,1.9,0.4,2.4,1.2c0.5,0.8,0.8,1.9,0.8,3.3c0,0.9-0.1,1.6-0.4,2.3c-0.3,0.7-0.7,1.2-1.2,1.6
	s-1.1,0.6-1.8,0.6c-0.9,0-1.6-0.3-2.1-0.9v3.9l-2.3,0.3v-12h2l0.1,1c0.3-0.4,0.7-0.7,1.1-0.9C391.6,76.4,392.1,76.3,392.5,76.3z
	 M391.8,83.6c1.1,0,1.7-0.9,1.7-2.8c0-1-0.1-1.7-0.4-2.2c-0.2-0.4-0.6-0.6-1.1-0.6c-0.3,0-0.6,0.1-0.9,0.3c-0.3,0.2-0.5,0.5-0.7,0.8
	v3.7C390.6,83.3,391.1,83.6,391.8,83.6z M403.9,82.6c0,0.3,0,0.6,0.1,0.7s0.3,0.3,0.5,0.3l-0.5,1.5c-0.5,0-0.9-0.2-1.2-0.4
	c-0.3-0.2-0.5-0.5-0.7-0.9c-0.6,0.9-1.4,1.3-2.5,1.3c-0.8,0-1.5-0.2-2-0.7s-0.7-1.1-0.7-1.9c0-0.9,0.3-1.6,1-2.1s1.6-0.7,2.9-0.7h1
	v-0.4c0-0.5-0.1-0.9-0.4-1.1c-0.2-0.2-0.6-0.3-1.2-0.3s-1.3,0.1-2.2,0.4l-0.5-1.5c1.1-0.4,2.1-0.6,3.1-0.6c1.2,0,2,0.3,2.5,0.8
	s0.8,1.2,0.8,2.2L403.9,82.6L403.9,82.6z M400.1,83.6c0.6,0,1.1-0.3,1.5-0.9v-1.6h-0.8c-1.2,0-1.8,0.5-1.8,1.4
	c0,0.4,0.1,0.7,0.3,0.9C399.5,83.5,399.8,83.6,400.1,83.6z"/>
<path class="st4" d="M402.5,77.9c1.4,0,2.4,0.3,3.2,0.9c0.8,0.6,1.1,1.4,1.1,2.6s-0.4,2.1-1.2,2.7c-0.8,0.6-1.8,0.9-3.1,0.9h-3.6
	V73.9h6.7l-0.2,1.8h-4.2v2.2H402.5z M402.5,83.3c0.7,0,1.2-0.1,1.5-0.4s0.5-0.8,0.5-1.4s-0.2-1.1-0.5-1.4s-0.9-0.4-1.6-0.4h-1.1v3.7
	L402.5,83.3L402.5,83.3z M411.9,76.3c1.3,0,2.3,0.4,3,1.2c0.7,0.8,1.1,1.9,1.1,3.3c0,0.9-0.2,1.7-0.5,2.4c-0.3,0.7-0.8,1.2-1.4,1.6
	s-1.3,0.6-2.2,0.6c-1.3,0-2.3-0.4-3-1.2c-0.7-0.8-1.1-1.9-1.1-3.3c0-0.9,0.2-1.7,0.5-2.4c0.3-0.7,0.8-1.2,1.4-1.6
	C410.4,76.5,411,76.3,411.9,76.3z M411.9,78c-0.6,0-1,0.2-1.3,0.7c-0.3,0.4-0.4,1.2-0.4,2.1s0.1,1.7,0.4,2.1s0.7,0.7,1.3,0.7
	c0.6,0,1-0.2,1.3-0.7s0.4-1.2,0.4-2.1s-0.1-1.7-0.4-2.1C412.9,78.2,412.5,78,411.9,78z M422.5,85v-3.5h-2.6V85h-2.3v-8.5h2.3v3.3
	h2.6v-3.3h2.3V85H422.5z M431.5,85c-0.3,1.1-0.9,1.9-1.6,2.5s-1.7,0.9-3,1l-0.2-1.6c0.8-0.1,1.4-0.3,1.8-0.6
	c0.4-0.3,0.7-0.7,0.9-1.3h-0.8l-2.6-8.5h2.4l1.7,7l1.8-7h2.4L431.5,85z M438.6,76.3c0.6,0,1.1,0.1,1.5,0.3c0.5,0.2,0.9,0.4,1.3,0.8
	l-1,1.3c-0.3-0.2-0.6-0.4-0.8-0.5c-0.2-0.1-0.5-0.1-0.8-0.1c-1.2,0-1.8,0.9-1.8,2.8c0,0.9,0.1,1.6,0.5,2c0.3,0.4,0.8,0.6,1.3,0.6
	c0.3,0,0.6,0,0.8-0.1c0.2-0.1,0.5-0.3,0.9-0.5l1,1.4c-0.8,0.7-1.7,1-2.8,1c-0.8,0-1.6-0.2-2.2-0.5c-0.6-0.4-1.1-0.9-1.4-1.5
	c-0.3-0.7-0.5-1.5-0.5-2.4s0.2-1.7,0.5-2.4c0.3-0.7,0.8-1.2,1.4-1.6C437.1,76.5,437.9,76.3,438.6,76.3z M445.6,79.2
	c1.3,0,2.3,0.3,2.9,0.8s0.9,1.2,0.9,2.2c0,0.9-0.3,1.7-1,2.2s-1.5,0.7-2.6,0.7h-3.2v-8.5h2.3v2.7L445.6,79.2L445.6,79.2z
	 M450.4,76.5h2.3V85h-2.3V76.5z M445.8,83.5c0.9,0,1.4-0.5,1.4-1.4c0-0.5-0.1-0.8-0.4-1c-0.2-0.2-0.6-0.3-1.2-0.3h-0.6v2.8
	L445.8,83.5L445.8,83.5z"/>
</svg>
