<svg width="1104" height="100" viewBox="0 0 1104 100" fill="none" xmlns="http://www.w3.org/2000/svg">
<circle cx="25" cy="25" r="25" fill="#867197"/>
<path d="M28.8971 14.81V35H25.1171V18.68L20.6171 21.41L18.9371 18.83L25.5071 14.81H28.8971Z" fill="#FEFEFE"/>
<circle cx="235" cy="25" r="25" fill="#171026" fill-opacity="0.2"/>
<path d="M234.387 14.45C235.747 14.45 236.917 14.7 237.897 15.2C238.897 15.7 239.657 16.38 240.177 17.24C240.697 18.1 240.957 19.06 240.957 20.12C240.957 21.26 240.707 22.36 240.207 23.42C239.727 24.46 238.917 25.62 237.777 26.9C236.637 28.18 234.967 29.87 232.767 31.97H241.407L240.987 35H228.417V32.18C230.977 29.58 232.807 27.66 233.907 26.42C235.027 25.16 235.817 24.09 236.277 23.21C236.757 22.31 236.997 21.38 236.997 20.42C236.997 19.5 236.727 18.78 236.187 18.26C235.667 17.74 234.967 17.48 234.087 17.48C233.307 17.48 232.617 17.65 232.017 17.99C231.437 18.31 230.827 18.85 230.187 19.61L227.847 17.75C229.547 15.55 231.727 14.45 234.387 14.45Z" fill="#FEFEFE"/>
<circle cx="445" cy="25" r="25" fill="#171026" fill-opacity="0.2"/>
<path d="M444.314 14.45C445.654 14.45 446.804 14.68 447.764 15.14C448.744 15.6 449.474 16.22 449.954 17C450.454 17.78 450.704 18.64 450.704 19.58C450.704 20.8 450.354 21.82 449.654 22.64C448.954 23.44 447.994 24 446.774 24.32C448.114 24.44 449.214 24.92 450.074 25.76C450.934 26.6 451.364 27.76 451.364 29.24C451.364 30.4 451.064 31.45 450.464 32.39C449.884 33.33 449.044 34.08 447.944 34.64C446.844 35.18 445.544 35.45 444.044 35.45C441.284 35.45 439.104 34.48 437.504 32.54L439.634 30.5C440.314 31.18 440.984 31.68 441.644 32C442.304 32.3 443.034 32.45 443.834 32.45C444.914 32.45 445.774 32.15 446.414 31.55C447.074 30.93 447.404 30.1 447.404 29.06C447.404 27.9 447.094 27.07 446.474 26.57C445.874 26.07 444.974 25.82 443.774 25.82H442.184L442.634 23.09H443.714C444.694 23.09 445.474 22.82 446.054 22.28C446.654 21.74 446.954 20.99 446.954 20.03C446.954 19.21 446.684 18.57 446.144 18.11C445.604 17.63 444.884 17.39 443.984 17.39C443.204 17.39 442.494 17.54 441.854 17.84C441.214 18.12 440.574 18.56 439.934 19.16L437.984 17.03C439.804 15.31 441.914 14.45 444.314 14.45Z" fill="#FEFEFE"/>
<circle cx="655" cy="25" r="25" fill="#171026" fill-opacity="0.2"/>
<path d="M663.003 27.44V30.38H660.573V35H656.823V30.38H648.243V27.74L654.123 14.42L657.393 15.65L652.233 27.44H656.853L657.243 22.37H660.573V27.44H663.003Z" fill="#FEFEFE"/>
<circle cx="865" cy="25" r="25" fill="#171026" fill-opacity="0.2"/>
<path d="M870.377 17.66H862.817V22.67C863.817 22.17 864.837 21.92 865.877 21.92C866.997 21.92 867.997 22.18 868.877 22.7C869.757 23.22 870.437 23.97 870.917 24.95C871.417 25.93 871.667 27.09 871.667 28.43C871.667 29.81 871.357 31.03 870.737 32.09C870.117 33.15 869.237 33.98 868.097 34.58C866.957 35.16 865.637 35.45 864.137 35.45C862.797 35.45 861.607 35.21 860.567 34.73C859.547 34.23 858.617 33.52 857.777 32.6L859.967 30.56C861.127 31.84 862.487 32.48 864.047 32.48C865.187 32.48 866.077 32.13 866.717 31.43C867.377 30.73 867.707 29.73 867.707 28.43C867.707 25.93 866.627 24.68 864.467 24.68C864.007 24.68 863.577 24.74 863.177 24.86C862.777 24.96 862.337 25.13 861.857 25.37H859.127V14.81H870.827L870.377 17.66Z" fill="#FEFEFE"/>
<circle cx="1075" cy="25" r="25" fill="#171026" fill-opacity="0.2"/>
<path d="M1077.09 21.56C1078.15 21.56 1079.11 21.82 1079.97 22.34C1080.85 22.84 1081.54 23.59 1082.04 24.59C1082.54 25.57 1082.79 26.75 1082.79 28.13C1082.79 29.53 1082.5 30.79 1081.92 31.91C1081.34 33.01 1080.52 33.88 1079.46 34.52C1078.42 35.14 1077.23 35.45 1075.89 35.45C1073.41 35.45 1071.57 34.58 1070.37 32.84C1069.19 31.1 1068.6 28.71 1068.6 25.67C1068.6 23.43 1068.93 21.47 1069.59 19.79C1070.27 18.09 1071.23 16.78 1072.47 15.86C1073.73 14.92 1075.2 14.45 1076.88 14.45C1078.54 14.45 1080.01 14.88 1081.29 15.74L1079.85 18.11C1078.93 17.57 1077.96 17.3 1076.94 17.3C1075.66 17.3 1074.63 17.88 1073.85 19.04C1073.09 20.18 1072.66 21.76 1072.56 23.78C1073.78 22.3 1075.29 21.56 1077.09 21.56ZM1075.89 32.6C1076.89 32.6 1077.64 32.21 1078.14 31.43C1078.66 30.63 1078.92 29.55 1078.92 28.19C1078.92 26.81 1078.68 25.83 1078.2 25.25C1077.74 24.65 1077.06 24.35 1076.16 24.35C1075.48 24.35 1074.83 24.54 1074.21 24.92C1073.61 25.28 1073.07 25.78 1072.59 26.42C1072.63 28.6 1072.9 30.18 1073.4 31.16C1073.92 32.12 1074.75 32.6 1075.89 32.6Z" fill="#FEFEFE"/>
<path d="M7.332 70.144C8.07867 70.2827 8.68133 70.5547 9.14 70.96C9.60933 71.3547 9.844 71.9627 9.844 72.784C9.844 73.9467 9.428 74.7733 8.596 75.264C7.764 75.7547 6.60667 76 5.124 76H1.668V64.928H4.692C6.20667 64.928 7.364 65.152 8.164 65.6C8.964 66.048 9.364 66.768 9.364 67.76C9.364 68.4107 9.16667 68.9387 8.772 69.344C8.388 69.7387 7.908 70.0053 7.332 70.144ZM4.02 66.624V69.424H5.172C5.748 69.424 6.19067 69.3067 6.5 69.072C6.80933 68.8267 6.964 68.4587 6.964 67.968C6.964 67.4773 6.79867 67.1307 6.468 66.928C6.13733 66.7253 5.62 66.624 4.916 66.624H4.02ZM5.14 74.256C5.876 74.256 6.436 74.1493 6.82 73.936C7.204 73.712 7.396 73.296 7.396 72.688C7.396 71.5787 6.71333 71.024 5.348 71.024H4.02V74.256H5.14ZM14.2958 70.176C15.6398 70.176 16.6211 70.4267 17.2398 70.928C17.8691 71.4187 18.1838 72.1387 18.1838 73.088C18.1838 74.0373 17.8531 74.7627 17.1918 75.264C16.5411 75.7547 15.6931 76 14.6478 76H11.4638V67.52H13.7358V70.176H14.2958ZM19.0318 67.52H21.3038V76H19.0318V67.52ZM14.4238 74.464C15.3731 74.464 15.8478 73.9947 15.8478 73.056C15.8478 72.5867 15.7304 72.24 15.4958 72.016C15.2611 71.792 14.8558 71.68 14.2798 71.68H13.7358V74.464H14.4238ZM27.8299 68.096C28.4379 68.096 28.9819 68.2507 29.4619 68.56C29.9419 68.8693 30.3205 69.3227 30.5979 69.92C30.8752 70.5067 31.0139 71.2053 31.0139 72.016C31.0139 72.8907 30.8485 73.648 30.5179 74.288C30.1872 74.9173 29.7232 75.4027 29.1259 75.744C28.5285 76.0853 27.8352 76.256 27.0459 76.256C25.8085 76.256 24.8272 75.8453 24.1019 75.024C23.3872 74.192 23.0299 72.9387 23.0299 71.264C23.0299 70.0373 23.1312 69.0293 23.3339 68.24C23.5365 67.4507 23.8832 66.8053 24.3739 66.304C24.8752 65.792 25.5739 65.392 26.4699 65.104C27.1205 64.9013 27.6325 64.72 28.0059 64.56C28.3899 64.3893 28.8059 64.1653 29.2539 63.888L30.1019 65.376C29.7285 65.6107 29.3339 65.824 28.9179 66.016C28.5019 66.208 27.9952 66.3947 27.3979 66.576C26.9179 66.736 26.5339 66.9227 26.2459 67.136C25.9685 67.3387 25.7445 67.6267 25.5739 68C25.4139 68.3627 25.3019 68.8587 25.2379 69.488C25.8565 68.56 26.7205 68.096 27.8299 68.096ZM27.0299 74.56C27.5312 74.56 27.9259 74.3787 28.2139 74.016C28.5019 73.6427 28.6459 73.0027 28.6459 72.096C28.6459 71.2533 28.5232 70.6613 28.2779 70.32C28.0432 69.968 27.6912 69.792 27.2219 69.792C26.8592 69.792 26.5179 69.8933 26.1979 70.096C25.8779 70.288 25.6112 70.5813 25.3979 70.976V72.048C25.3979 72.88 25.5419 73.5093 25.8299 73.936C26.1179 74.352 26.5179 74.56 27.0299 74.56ZM36.313 67.264C37.5823 67.264 38.5743 67.664 39.289 68.464C40.0037 69.2533 40.361 70.352 40.361 71.76C40.361 72.656 40.1957 73.4453 39.865 74.128C39.545 74.8 39.0757 75.3227 38.457 75.696C37.849 76.0693 37.129 76.256 36.297 76.256C35.0277 76.256 34.0303 75.8613 33.305 75.072C32.5903 74.272 32.233 73.168 32.233 71.76C32.233 70.864 32.393 70.08 32.713 69.408C33.0437 68.7253 33.513 68.1973 34.121 67.824C34.7397 67.4507 35.4703 67.264 36.313 67.264ZM36.313 68.96C35.737 68.96 35.305 69.1893 35.017 69.648C34.7397 70.096 34.601 70.8 34.601 71.76C34.601 72.72 34.7397 73.4293 35.017 73.888C35.305 74.336 35.7317 74.56 36.297 74.56C36.8623 74.56 37.2837 74.336 37.561 73.888C37.849 73.4293 37.993 72.72 37.993 71.76C37.993 70.8 37.8543 70.096 37.577 69.648C37.2997 69.1893 36.8783 68.96 36.313 68.96ZM46.6648 67.264C47.7314 67.264 48.5208 67.6587 49.0328 68.448C49.5554 69.2267 49.8168 70.3253 49.8168 71.744C49.8168 72.608 49.6834 73.3813 49.4167 74.064C49.1501 74.7467 48.7608 75.2853 48.2488 75.68C47.7474 76.064 47.1501 76.256 46.4568 76.256C45.5928 76.256 44.8941 75.952 44.3608 75.344V79.264L42.0888 79.52V67.52H44.0888L44.2008 68.512C44.5208 68.096 44.8941 67.7867 45.3208 67.584C45.7581 67.3707 46.2061 67.264 46.6648 67.264ZM45.7848 74.56C46.8941 74.56 47.4488 73.6267 47.4488 71.76C47.4488 70.736 47.3261 70.0107 47.0808 69.584C46.8354 69.1573 46.4621 68.944 45.9608 68.944C45.6408 68.944 45.3421 69.0453 45.0648 69.248C44.7981 69.44 44.5634 69.7013 44.3608 70.032V73.728C44.7234 74.2827 45.1981 74.56 45.7848 74.56ZM14.868 95H12.692V91.784C12.692 91.176 12.724 90.6 12.788 90.056C12.852 89.512 12.9213 89.08 12.996 88.76L9.988 95H7.62V86.52H9.796V89.768C9.796 90.344 9.764 90.9147 9.7 91.48C9.64667 92.0347 9.58267 92.4613 9.508 92.76L12.468 86.52H14.868V95ZM19.3764 95H17.1044V86.52H22.9284L22.6564 88.264H19.3764V95ZM28.5866 86.264C29.6533 86.264 30.4426 86.6587 30.9546 87.448C31.4773 88.2267 31.7386 89.3253 31.7386 90.744C31.7386 91.608 31.6053 92.3813 31.3386 93.064C31.072 93.7467 30.6826 94.2853 30.1706 94.68C29.6693 95.064 29.072 95.256 28.3786 95.256C27.5146 95.256 26.816 94.952 26.2826 94.344V98.264L24.0106 98.52V86.52H26.0106L26.1226 87.512C26.4426 87.096 26.816 86.7867 27.2426 86.584C27.68 86.3707 28.128 86.264 28.5866 86.264ZM27.7066 93.56C28.816 93.56 29.3706 92.6267 29.3706 90.76C29.3706 89.736 29.248 89.0107 29.0026 88.584C28.7573 88.1573 28.384 87.944 27.8826 87.944C27.5626 87.944 27.264 88.0453 26.9866 88.248C26.72 88.44 26.4853 88.7013 26.2826 89.032V92.728C26.6453 93.2827 27.12 93.56 27.7066 93.56ZM36.3739 89.176C37.7179 89.176 38.6992 89.4267 39.3179 89.928C39.9472 90.4187 40.2619 91.1387 40.2619 92.088C40.2619 93.0373 39.9312 93.7627 39.2699 94.264C38.6192 94.7547 37.7712 95 36.7259 95H33.5419V86.52H35.8139V89.176H36.3739ZM41.1099 86.52H43.3819V95H41.1099V86.52ZM36.5019 93.464C37.4512 93.464 37.9259 92.9947 37.9259 92.056C37.9259 91.5867 37.8085 91.24 37.5739 91.016C37.3392 90.792 36.9339 90.68 36.3579 90.68H35.8139V93.464H36.5019Z" fill="#867197"/>
<path d="M191.944 73.928C193.384 73.928 194.498 74.2267 195.288 74.824C196.088 75.4213 196.488 76.312 196.488 77.496C196.488 78.7333 196.093 79.6667 195.304 80.296C194.514 80.9147 193.458 81.224 192.136 81.224H190.872V85H188.52V73.928H191.944ZM191.944 79.496C192.626 79.496 193.149 79.3413 193.512 79.032C193.874 78.7227 194.056 78.2107 194.056 77.496C194.056 76.248 193.341 75.624 191.912 75.624H190.872V79.496H191.944ZM204.671 80.568C204.671 80.6747 204.655 80.968 204.623 81.448H199.327C199.401 82.216 199.609 82.76 199.951 83.08C200.292 83.4 200.756 83.56 201.343 83.56C201.705 83.56 202.047 83.5013 202.367 83.384C202.687 83.2667 203.033 83.08 203.407 82.824L204.351 84.104C203.401 84.872 202.329 85.256 201.135 85.256C199.801 85.256 198.777 84.856 198.063 84.056C197.348 83.256 196.991 82.1733 196.991 80.808C196.991 79.944 197.14 79.1707 197.439 78.488C197.748 77.7947 198.191 77.2507 198.767 76.856C199.353 76.4613 200.047 76.264 200.847 76.264C202.052 76.264 202.991 76.6427 203.663 77.4C204.335 78.1573 204.671 79.2133 204.671 80.568ZM202.415 79.928C202.415 78.52 201.908 77.816 200.895 77.816C200.425 77.816 200.057 77.992 199.791 78.344C199.535 78.6853 199.38 79.2453 199.327 80.024H202.415V79.928ZM208.587 85H206.315V76.52H212.139L211.867 78.264H208.587V85ZM220.47 85H218.294V81.784C218.294 81.176 218.326 80.6 218.39 80.056C218.454 79.512 218.523 79.08 218.598 78.76L215.59 85H213.222V76.52H215.398V79.768C215.398 80.344 215.366 80.9147 215.302 81.48C215.248 82.0347 215.184 82.4613 215.11 82.76L218.07 76.52H220.47V85ZM226.242 76.264C226.807 76.264 227.314 76.3493 227.762 76.52C228.221 76.68 228.653 76.936 229.058 77.288L228.066 78.632C227.789 78.4187 227.517 78.264 227.25 78.168C226.994 78.072 226.711 78.024 226.402 78.024C225.197 78.024 224.594 78.952 224.594 80.808C224.594 81.7467 224.749 82.4187 225.058 82.824C225.367 83.2293 225.81 83.432 226.386 83.432C226.685 83.432 226.957 83.3893 227.202 83.304C227.447 83.208 227.735 83.0533 228.066 82.84L229.058 84.264C228.247 84.9253 227.319 85.256 226.274 85.256C225.442 85.256 224.717 85.0747 224.098 84.712C223.49 84.3493 223.021 83.8373 222.69 83.176C222.359 82.504 222.194 81.72 222.194 80.824C222.194 79.928 222.359 79.1387 222.69 78.456C223.021 77.7627 223.49 77.224 224.098 76.84C224.717 76.456 225.431 76.264 226.242 76.264ZM236.779 76.52L236.491 78.232H234.091V85H231.819V78.232H229.275V76.52H236.779ZM242.391 76.264C243.458 76.264 244.247 76.6587 244.759 77.448C245.282 78.2267 245.543 79.3253 245.543 80.744C245.543 81.608 245.41 82.3813 245.143 83.064C244.877 83.7467 244.487 84.2853 243.975 84.68C243.474 85.064 242.877 85.256 242.183 85.256C241.319 85.256 240.621 84.952 240.087 84.344V88.264L237.815 88.52V76.52H239.815L239.927 77.512C240.247 77.096 240.621 76.7867 241.047 76.584C241.485 76.3707 241.933 76.264 242.391 76.264ZM241.511 83.56C242.621 83.56 243.175 82.6267 243.175 80.76C243.175 79.736 243.053 79.0107 242.807 78.584C242.562 78.1573 242.189 77.944 241.687 77.944C241.367 77.944 241.069 78.0453 240.791 78.248C240.525 78.44 240.29 78.7013 240.087 79.032V82.728C240.45 83.2827 240.925 83.56 241.511 83.56ZM253.67 82.648C253.67 82.9787 253.718 83.224 253.814 83.384C253.91 83.5333 254.07 83.6453 254.294 83.72L253.814 85.224C253.313 85.1813 252.902 85.064 252.582 84.872C252.273 84.68 252.033 84.3813 251.862 83.976C251.308 84.8293 250.46 85.256 249.318 85.256C248.476 85.256 247.804 85.016 247.302 84.536C246.812 84.0453 246.566 83.4107 246.566 82.632C246.566 81.704 246.902 80.9947 247.574 80.504C248.246 80.0133 249.212 79.768 250.47 79.768H251.446V79.352C251.446 78.8293 251.329 78.4667 251.094 78.264C250.86 78.0613 250.47 77.96 249.926 77.96C249.329 77.96 248.582 78.1093 247.686 78.408L247.174 76.888C248.23 76.472 249.276 76.264 250.31 76.264C251.462 76.264 252.31 76.5147 252.854 77.016C253.398 77.5067 253.67 78.2427 253.67 79.224V82.648ZM249.942 83.624C250.582 83.624 251.084 83.3093 251.446 82.68V81.064H250.694C249.468 81.064 248.854 81.5227 248.854 82.44C248.854 82.8133 248.945 83.1067 249.126 83.32C249.318 83.5227 249.59 83.624 249.942 83.624ZM262.964 83.304H264.244V87.592H262.628L262.356 85H255.94V76.52H258.212V83.288H260.692V76.52H262.964V83.304ZM272.657 85H270.481V81.784C270.481 81.176 270.513 80.6 270.577 80.056C270.641 79.512 270.71 79.08 270.785 78.76L267.777 85H265.409V76.52H267.585V79.768C267.585 80.344 267.553 80.9147 267.489 81.48C267.436 82.0347 267.372 82.4613 267.297 82.76L270.257 76.52H272.657V85ZM281.533 76.52V85H279.261V81.976H278.013L276.397 85H273.949L275.933 81.448C275.027 80.9893 274.573 80.2533 274.573 79.24C274.573 78.344 274.899 77.6667 275.549 77.208C276.211 76.7493 277.16 76.52 278.397 76.52H281.533ZM279.261 80.568V78.024H278.381C277.4 78.024 276.909 78.4347 276.909 79.256C276.909 80.1307 277.384 80.568 278.333 80.568H279.261Z" fill="#171026" fill-opacity="0.2"/>
<path d="M413.105 64.928V76H410.753V66.768H407.137V76H404.785V64.928H413.105ZM421.889 73.648C421.889 73.9787 421.937 74.224 422.033 74.384C422.129 74.5333 422.289 74.6453 422.513 74.72L422.033 76.224C421.532 76.1813 421.121 76.064 420.801 75.872C420.492 75.68 420.252 75.3813 420.081 74.976C419.526 75.8293 418.678 76.256 417.537 76.256C416.694 76.256 416.022 76.016 415.521 75.536C415.03 75.0453 414.785 74.4107 414.785 73.632C414.785 72.704 415.121 71.9947 415.793 71.504C416.465 71.0133 417.43 70.768 418.689 70.768H419.665V70.352C419.665 69.8293 419.548 69.4667 419.313 69.264C419.078 69.0613 418.689 68.96 418.145 68.96C417.548 68.96 416.801 69.1093 415.905 69.408L415.393 67.888C416.449 67.472 417.494 67.264 418.529 67.264C419.681 67.264 420.529 67.5147 421.073 68.016C421.617 68.5067 421.889 69.2427 421.889 70.224V73.648ZM418.161 74.624C418.801 74.624 419.302 74.3093 419.665 73.68V72.064H418.913C417.686 72.064 417.073 72.5227 417.073 73.44C417.073 73.8133 417.164 74.1067 417.345 74.32C417.537 74.5227 417.809 74.624 418.161 74.624ZM428.735 67.264C429.802 67.264 430.591 67.6587 431.103 68.448C431.626 69.2267 431.887 70.3253 431.887 71.744C431.887 72.608 431.754 73.3813 431.487 74.064C431.22 74.7467 430.831 75.2853 430.319 75.68C429.818 76.064 429.22 76.256 428.527 76.256C427.663 76.256 426.964 75.952 426.431 75.344V79.264L424.159 79.52V67.52H426.159L426.271 68.512C426.591 68.096 426.964 67.7867 427.391 67.584C427.828 67.3707 428.276 67.264 428.735 67.264ZM427.855 74.56C428.964 74.56 429.519 73.6267 429.519 71.76C429.519 70.736 429.396 70.0107 429.151 69.584C428.906 69.1573 428.532 68.944 428.031 68.944C427.711 68.944 427.412 69.0453 427.135 69.248C426.868 69.44 426.634 69.7013 426.431 70.032V73.728C426.794 74.2827 427.268 74.56 427.855 74.56ZM440.014 73.648C440.014 73.9787 440.062 74.224 440.158 74.384C440.254 74.5333 440.414 74.6453 440.638 74.72L440.158 76.224C439.657 76.1813 439.246 76.064 438.926 75.872C438.617 75.68 438.377 75.3813 438.206 74.976C437.651 75.8293 436.803 76.256 435.662 76.256C434.819 76.256 434.147 76.016 433.646 75.536C433.155 75.0453 432.91 74.4107 432.91 73.632C432.91 72.704 433.246 71.9947 433.918 71.504C434.59 71.0133 435.555 70.768 436.814 70.768H437.79V70.352C437.79 69.8293 437.673 69.4667 437.438 69.264C437.203 69.0613 436.814 68.96 436.27 68.96C435.673 68.96 434.926 69.1093 434.03 69.408L433.518 67.888C434.574 67.472 435.619 67.264 436.654 67.264C437.806 67.264 438.654 67.5147 439.198 68.016C439.742 68.5067 440.014 69.2427 440.014 70.224V73.648ZM436.286 74.624C436.926 74.624 437.427 74.3093 437.79 73.68V72.064H437.038C435.811 72.064 435.198 72.5227 435.198 73.44C435.198 73.8133 435.289 74.1067 435.47 74.32C435.662 74.5227 435.934 74.624 436.286 74.624ZM451.324 76H449.164L448.924 72.736C448.892 72.2667 448.876 71.8187 448.876 71.392C448.876 71.0933 448.897 70.4747 448.94 69.536L447.436 75.12H445.5L444.06 69.552C444.103 70.1067 444.124 70.7093 444.124 71.36C444.124 71.6693 444.113 72.1227 444.092 72.72L443.9 76H441.74L442.476 67.52H445.196L446.476 73.136L447.836 67.52H450.572L451.324 76ZM460.186 71.568C460.186 71.6747 460.17 71.968 460.138 72.448H454.842C454.917 73.216 455.125 73.76 455.466 74.08C455.808 74.4 456.272 74.56 456.858 74.56C457.221 74.56 457.562 74.5013 457.882 74.384C458.202 74.2667 458.549 74.08 458.922 73.824L459.866 75.104C458.917 75.872 457.845 76.256 456.65 76.256C455.317 76.256 454.293 75.856 453.578 75.056C452.864 74.256 452.506 73.1733 452.506 71.808C452.506 70.944 452.656 70.1707 452.954 69.488C453.264 68.7947 453.706 68.2507 454.282 67.856C454.869 67.4613 455.562 67.264 456.362 67.264C457.568 67.264 458.506 67.6427 459.178 68.4C459.85 69.1573 460.186 70.2133 460.186 71.568ZM457.93 70.928C457.93 69.52 457.424 68.816 456.41 68.816C455.941 68.816 455.573 68.992 455.306 69.344C455.05 69.6853 454.896 70.2453 454.842 71.024H457.93V70.928ZM467.857 67.52L467.569 69.232H465.169V76H462.897V69.232H460.353V67.52H467.857ZM473.469 67.264C474.536 67.264 475.325 67.6587 475.837 68.448C476.36 69.2267 476.621 70.3253 476.621 71.744C476.621 72.608 476.488 73.3813 476.221 74.064C475.955 74.7467 475.565 75.2853 475.053 75.68C474.552 76.064 473.955 76.256 473.261 76.256C472.397 76.256 471.699 75.952 471.165 75.344V79.264L468.893 79.52V67.52H470.893L471.005 68.512C471.325 68.096 471.699 67.7867 472.125 67.584C472.563 67.3707 473.011 67.264 473.469 67.264ZM472.589 74.56C473.699 74.56 474.253 73.6267 474.253 71.76C474.253 70.736 474.131 70.0107 473.885 69.584C473.64 69.1573 473.267 68.944 472.765 68.944C472.445 68.944 472.147 69.0453 471.869 69.248C471.603 69.44 471.368 69.7013 471.165 70.032V73.728C471.528 74.2827 472.003 74.56 472.589 74.56ZM481.257 70.176C482.601 70.176 483.582 70.4267 484.201 70.928C484.83 71.4187 485.145 72.1387 485.145 73.088C485.145 74.0373 484.814 74.7627 484.153 75.264C483.502 75.7547 482.654 76 481.609 76H478.425V67.52H480.697V70.176H481.257ZM485.993 67.52H488.265V76H485.993V67.52ZM481.385 74.464C482.334 74.464 482.809 73.9947 482.809 73.056C482.809 72.5867 482.691 72.24 482.457 72.016C482.222 71.792 481.817 71.68 481.241 71.68H480.697V74.464H481.385ZM425.032 86.264C425.949 86.264 426.717 86.4773 427.336 86.904C427.965 87.32 428.28 87.8853 428.28 88.6C428.28 89.08 428.13 89.4747 427.832 89.784C427.533 90.0933 427.074 90.3227 426.456 90.472C427.213 90.5893 427.778 90.8133 428.152 91.144C428.525 91.464 428.712 91.928 428.712 92.536C428.712 93.4213 428.354 94.0987 427.64 94.568C426.936 95.0267 426.008 95.256 424.856 95.256C423.501 95.256 422.365 94.9093 421.448 94.216L422.536 92.936C422.92 93.1813 423.277 93.3573 423.608 93.464C423.949 93.56 424.338 93.608 424.776 93.608C425.821 93.608 426.344 93.2187 426.344 92.44C426.344 92.0667 426.2 91.8 425.912 91.64C425.634 91.4693 425.229 91.384 424.696 91.384H423.416L423.56 89.864H424.52C424.978 89.864 425.336 89.7787 425.592 89.608C425.848 89.4267 425.976 89.16 425.976 88.808C425.976 88.488 425.858 88.2533 425.624 88.104C425.4 87.944 425.096 87.864 424.712 87.864C424.328 87.864 423.986 87.9173 423.688 88.024C423.4 88.12 423.096 88.2693 422.776 88.472L421.72 87.24C422.189 86.9093 422.69 86.664 423.224 86.504C423.757 86.344 424.36 86.264 425.032 86.264ZM436.764 92.648C436.764 92.9787 436.812 93.224 436.908 93.384C437.004 93.5333 437.164 93.6453 437.388 93.72L436.908 95.224C436.407 95.1813 435.996 95.064 435.676 94.872C435.367 94.68 435.127 94.3813 434.956 93.976C434.401 94.8293 433.553 95.256 432.412 95.256C431.569 95.256 430.897 95.016 430.396 94.536C429.905 94.0453 429.66 93.4107 429.66 92.632C429.66 91.704 429.996 90.9947 430.668 90.504C431.34 90.0133 432.305 89.768 433.564 89.768H434.54V89.352C434.54 88.8293 434.423 88.4667 434.188 88.264C433.953 88.0613 433.564 87.96 433.02 87.96C432.423 87.96 431.676 88.1093 430.78 88.408L430.268 86.888C431.324 86.472 432.369 86.264 433.404 86.264C434.556 86.264 435.404 86.5147 435.948 87.016C436.492 87.5067 436.764 88.2427 436.764 89.224V92.648ZM433.036 93.624C433.676 93.624 434.177 93.3093 434.54 92.68V91.064H433.788C432.561 91.064 431.948 91.5227 431.948 92.44C431.948 92.8133 432.039 93.1067 432.22 93.32C432.412 93.5227 432.684 93.624 433.036 93.624ZM446.346 86.52L444.01 90.456L446.57 95H444.122L442.154 91.288H441.306V95H439.034V86.52H441.306V89.848H442.202L444.106 86.52H446.346ZM453.936 92.648C453.936 92.9787 453.984 93.224 454.08 93.384C454.176 93.5333 454.336 93.6453 454.56 93.72L454.08 95.224C453.579 95.1813 453.168 95.064 452.848 94.872C452.539 94.68 452.299 94.3813 452.128 93.976C451.573 94.8293 450.725 95.256 449.584 95.256C448.741 95.256 448.069 95.016 447.568 94.536C447.077 94.0453 446.832 93.4107 446.832 92.632C446.832 91.704 447.168 90.9947 447.84 90.504C448.512 90.0133 449.477 89.768 450.736 89.768H451.712V89.352C451.712 88.8293 451.595 88.4667 451.36 88.264C451.125 88.0613 450.736 87.96 450.192 87.96C449.595 87.96 448.848 88.1093 447.952 88.408L447.44 86.888C448.496 86.472 449.541 86.264 450.576 86.264C451.728 86.264 452.576 86.5147 453.12 87.016C453.664 87.5067 453.936 88.2427 453.936 89.224V92.648ZM450.208 93.624C450.848 93.624 451.349 93.3093 451.712 92.68V91.064H450.96C449.733 91.064 449.12 91.5227 449.12 92.44C449.12 92.8133 449.211 93.1067 449.392 93.32C449.584 93.5227 449.856 93.624 450.208 93.624ZM458.766 86.264C459.683 86.264 460.451 86.4773 461.07 86.904C461.699 87.32 462.014 87.8853 462.014 88.6C462.014 89.08 461.865 89.4747 461.566 89.784C461.267 90.0933 460.809 90.3227 460.19 90.472C460.947 90.5893 461.513 90.8133 461.886 91.144C462.259 91.464 462.446 91.928 462.446 92.536C462.446 93.4213 462.089 94.0987 461.374 94.568C460.67 95.0267 459.742 95.256 458.59 95.256C457.235 95.256 456.099 94.9093 455.182 94.216L456.27 92.936C456.654 93.1813 457.011 93.3573 457.342 93.464C457.683 93.56 458.073 93.608 458.51 93.608C459.555 93.608 460.078 93.2187 460.078 92.44C460.078 92.0667 459.934 91.8 459.646 91.64C459.369 91.4693 458.963 91.384 458.43 91.384H457.15L457.294 89.864H458.254C458.713 89.864 459.07 89.7787 459.326 89.608C459.582 89.4267 459.71 89.16 459.71 88.808C459.71 88.488 459.593 88.2533 459.358 88.104C459.134 87.944 458.83 87.864 458.446 87.864C458.062 87.864 457.721 87.9173 457.422 88.024C457.134 88.12 456.83 88.2693 456.51 88.472L455.454 87.24C455.923 86.9093 456.425 86.664 456.958 86.504C457.491 86.344 458.094 86.264 458.766 86.264ZM470.498 92.648C470.498 92.9787 470.546 93.224 470.642 93.384C470.738 93.5333 470.898 93.6453 471.122 93.72L470.642 95.224C470.141 95.1813 469.73 95.064 469.41 94.872C469.101 94.68 468.861 94.3813 468.69 93.976C468.136 94.8293 467.288 95.256 466.146 95.256C465.304 95.256 464.632 95.016 464.13 94.536C463.64 94.0453 463.394 93.4107 463.394 92.632C463.394 91.704 463.73 90.9947 464.402 90.504C465.074 90.0133 466.04 89.768 467.298 89.768H468.274V89.352C468.274 88.8293 468.157 88.4667 467.922 88.264C467.688 88.0613 467.298 87.96 466.754 87.96C466.157 87.96 465.41 88.1093 464.514 88.408L464.002 86.888C465.058 86.472 466.104 86.264 467.138 86.264C468.29 86.264 469.138 86.5147 469.682 87.016C470.226 87.5067 470.498 88.2427 470.498 89.224V92.648ZM466.77 93.624C467.41 93.624 467.912 93.3093 468.274 92.68V91.064H467.522C466.296 91.064 465.682 91.5227 465.682 92.44C465.682 92.8133 465.773 93.1067 465.954 93.32C466.146 93.5227 466.418 93.624 466.77 93.624Z" fill="#171026" fill-opacity="0.2"/>
<path d="M633.747 73.672C634.76 73.672 635.635 73.9013 636.371 74.36C637.107 74.808 637.672 75.464 638.067 76.328C638.462 77.192 638.659 78.2373 638.659 79.464C638.659 80.6693 638.462 81.7093 638.067 82.584C637.672 83.448 637.107 84.1093 636.371 84.568C635.635 85.0267 634.76 85.256 633.747 85.256C632.734 85.256 631.854 85.032 631.107 84.584C630.371 84.1253 629.806 83.464 629.411 82.6C629.016 81.7253 628.819 80.68 628.819 79.464C628.819 78.2693 629.016 77.24 629.411 76.376C629.816 75.5013 630.387 74.8347 631.123 74.376C631.87 73.9067 632.744 73.672 633.747 73.672ZM633.747 75.432C632.936 75.432 632.323 75.752 631.907 76.392C631.502 77.032 631.299 78.056 631.299 79.464C631.299 80.872 631.507 81.896 631.923 82.536C632.339 83.176 632.947 83.496 633.747 83.496C634.558 83.496 635.166 83.1813 635.571 82.552C635.976 81.912 636.179 80.8827 636.179 79.464C636.179 78.0453 635.976 77.0213 635.571 76.392C635.166 75.752 634.558 75.432 633.747 75.432ZM645.225 85V78.232H642.665V85H640.393V76.52H647.497V85H645.225ZM656.649 76.52V85H654.377V78.216H652.505L652.329 80.28C652.223 81.496 652.089 82.408 651.929 83.016C651.78 83.6133 651.519 84.0827 651.145 84.424C650.783 84.7547 650.228 85.0107 649.481 85.192L648.937 83.528C649.289 83.3787 649.54 83.2133 649.689 83.032C649.839 82.84 649.945 82.5467 650.009 82.152C650.084 81.7573 650.153 81.0853 650.217 80.136L650.489 76.52H656.649ZM665.373 82.648C665.373 82.9787 665.421 83.224 665.517 83.384C665.613 83.5333 665.773 83.6453 665.997 83.72L665.517 85.224C665.016 85.1813 664.605 85.064 664.285 84.872C663.976 84.68 663.736 84.3813 663.565 83.976C663.011 84.8293 662.163 85.256 661.021 85.256C660.179 85.256 659.507 85.016 659.005 84.536C658.515 84.0453 658.269 83.4107 658.269 82.632C658.269 81.704 658.605 80.9947 659.277 80.504C659.949 80.0133 660.915 79.768 662.173 79.768H663.149V79.352C663.149 78.8293 663.032 78.4667 662.797 78.264C662.563 78.0613 662.173 77.96 661.629 77.96C661.032 77.96 660.285 78.1093 659.389 78.408L658.877 76.888C659.933 76.472 660.979 76.264 662.013 76.264C663.165 76.264 664.013 76.5147 664.557 77.016C665.101 77.5067 665.373 78.2427 665.373 79.224V82.648ZM661.645 83.624C662.285 83.624 662.787 83.3093 663.149 82.68V81.064H662.397C661.171 81.064 660.557 81.5227 660.557 82.44C660.557 82.8133 660.648 83.1067 660.829 83.32C661.021 83.5227 661.293 83.624 661.645 83.624ZM673.763 76.52L673.475 78.232H671.075V85H668.803V78.232H666.259V76.52H673.763ZM680.639 82.648C680.639 82.9787 680.687 83.224 680.783 83.384C680.879 83.5333 681.039 83.6453 681.263 83.72L680.783 85.224C680.282 85.1813 679.871 85.064 679.551 84.872C679.242 84.68 679.002 84.3813 678.831 83.976C678.276 84.8293 677.428 85.256 676.287 85.256C675.444 85.256 674.772 85.016 674.271 84.536C673.78 84.0453 673.535 83.4107 673.535 82.632C673.535 81.704 673.871 80.9947 674.543 80.504C675.215 80.0133 676.18 79.768 677.439 79.768H678.415V79.352C678.415 78.8293 678.298 78.4667 678.063 78.264C677.828 78.0613 677.439 77.96 676.895 77.96C676.298 77.96 675.551 78.1093 674.655 78.408L674.143 76.888C675.199 76.472 676.244 76.264 677.279 76.264C678.431 76.264 679.279 76.5147 679.823 77.016C680.367 77.5067 680.639 78.2427 680.639 79.224V82.648ZM676.911 83.624C677.551 83.624 678.052 83.3093 678.415 82.68V81.064H677.663C676.436 81.064 675.823 81.5227 675.823 82.44C675.823 82.8133 675.914 83.1067 676.095 83.32C676.287 83.5227 676.559 83.624 676.911 83.624Z" fill="#171026" fill-opacity="0.2"/>
<path d="M814.715 73.928V85H812.363V75.768H808.747V85H806.395V73.928H814.715ZM820.586 76.264C821.856 76.264 822.848 76.664 823.562 77.464C824.277 78.2533 824.634 79.352 824.634 80.76C824.634 81.656 824.469 82.4453 824.138 83.128C823.818 83.8 823.349 84.3227 822.73 84.696C822.122 85.0693 821.402 85.256 820.57 85.256C819.301 85.256 818.304 84.8613 817.578 84.072C816.864 83.272 816.506 82.168 816.506 80.76C816.506 79.864 816.666 79.08 816.986 78.408C817.317 77.7253 817.786 77.1973 818.394 76.824C819.013 76.4507 819.744 76.264 820.586 76.264ZM820.586 77.96C820.01 77.96 819.578 78.1893 819.29 78.648C819.013 79.096 818.874 79.8 818.874 80.76C818.874 81.72 819.013 82.4293 819.29 82.888C819.578 83.336 820.005 83.56 820.57 83.56C821.136 83.56 821.557 83.336 821.834 82.888C822.122 82.4293 822.266 81.72 822.266 80.76C822.266 79.8 822.128 79.096 821.85 78.648C821.573 78.1893 821.152 77.96 820.586 77.96ZM833.71 83.304V87.592H832.094L831.822 85H826.974L826.702 87.592H825.086V83.304H825.63C825.833 83.1547 825.998 82.9733 826.126 82.76C826.265 82.5467 826.387 82.184 826.494 81.672C826.601 81.16 826.691 80.424 826.766 79.464L826.99 76.52H832.814V83.304H833.71ZM830.67 78.072H828.958L828.862 79.24C828.787 80.136 828.691 80.8453 828.574 81.368C828.467 81.88 828.318 82.2853 828.126 82.584C827.945 82.872 827.694 83.112 827.374 83.304H830.67V78.072ZM839.385 77.096C839.993 77.096 840.537 77.2507 841.017 77.56C841.497 77.8693 841.875 78.3227 842.153 78.92C842.43 79.5067 842.569 80.2053 842.569 81.016C842.569 81.8907 842.403 82.648 842.073 83.288C841.742 83.9173 841.278 84.4027 840.681 84.744C840.083 85.0853 839.39 85.256 838.601 85.256C837.363 85.256 836.382 84.8453 835.657 84.024C834.942 83.192 834.585 81.9387 834.585 80.264C834.585 79.0373 834.686 78.0293 834.889 77.24C835.091 76.4507 835.438 75.8053 835.929 75.304C836.43 74.792 837.129 74.392 838.025 74.104C838.675 73.9013 839.187 73.72 839.561 73.56C839.945 73.3893 840.361 73.1653 840.809 72.888L841.657 74.376C841.283 74.6107 840.889 74.824 840.473 75.016C840.057 75.208 839.55 75.3947 838.953 75.576C838.473 75.736 838.089 75.9227 837.801 76.136C837.523 76.3387 837.299 76.6267 837.129 77C836.969 77.3627 836.857 77.8587 836.793 78.488C837.411 77.56 838.275 77.096 839.385 77.096ZM838.585 83.56C839.086 83.56 839.481 83.3787 839.769 83.016C840.057 82.6427 840.201 82.0027 840.201 81.096C840.201 80.2533 840.078 79.6613 839.833 79.32C839.598 78.968 839.246 78.792 838.777 78.792C838.414 78.792 838.073 78.8933 837.753 79.096C837.433 79.288 837.166 79.5813 836.953 79.976V81.048C836.953 81.88 837.097 82.5093 837.385 82.936C837.673 83.352 838.073 83.56 838.585 83.56ZM847.868 76.264C849.137 76.264 850.129 76.664 850.844 77.464C851.558 78.2533 851.916 79.352 851.916 80.76C851.916 81.656 851.75 82.4453 851.42 83.128C851.1 83.8 850.63 84.3227 850.012 84.696C849.404 85.0693 848.684 85.256 847.852 85.256C846.582 85.256 845.585 84.8613 844.86 84.072C844.145 83.272 843.788 82.168 843.788 80.76C843.788 79.864 843.948 79.08 844.268 78.408C844.598 77.7253 845.068 77.1973 845.676 76.824C846.294 76.4507 847.025 76.264 847.868 76.264ZM847.868 77.96C847.292 77.96 846.86 78.1893 846.572 78.648C846.294 79.096 846.156 79.8 846.156 80.76C846.156 81.72 846.294 82.4293 846.572 82.888C846.86 83.336 847.286 83.56 847.852 83.56C848.417 83.56 848.838 83.336 849.116 82.888C849.404 82.4293 849.548 81.72 849.548 80.76C849.548 79.8 849.409 79.096 849.132 78.648C848.854 78.1893 848.433 77.96 847.868 77.96ZM858.219 76.264C859.286 76.264 860.075 76.6587 860.587 77.448C861.11 78.2267 861.371 79.3253 861.371 80.744C861.371 81.608 861.238 82.3813 860.971 83.064C860.705 83.7467 860.315 84.2853 859.803 84.68C859.302 85.064 858.705 85.256 858.011 85.256C857.147 85.256 856.449 84.952 855.915 84.344V88.264L853.643 88.52V76.52H855.643L855.755 77.512C856.075 77.096 856.449 76.7867 856.875 76.584C857.313 76.3707 857.761 76.264 858.219 76.264ZM857.339 83.56C858.449 83.56 859.003 82.6267 859.003 80.76C859.003 79.736 858.881 79.0107 858.635 78.584C858.39 78.1573 858.017 77.944 857.515 77.944C857.195 77.944 856.897 78.0453 856.619 78.248C856.353 78.44 856.118 78.7013 855.915 79.032V82.728C856.278 83.2827 856.753 83.56 857.339 83.56ZM871.369 77.096C871.977 77.096 872.521 77.2507 873.001 77.56C873.481 77.8693 873.86 78.3227 874.137 78.92C874.414 79.5067 874.553 80.2053 874.553 81.016C874.553 81.8907 874.388 82.648 874.057 83.288C873.726 83.9173 873.262 84.4027 872.665 84.744C872.068 85.0853 871.374 85.256 870.585 85.256C869.348 85.256 868.366 84.8453 867.641 84.024C866.926 83.192 866.569 81.9387 866.569 80.264C866.569 79.0373 866.67 78.0293 866.873 77.24C867.076 76.4507 867.422 75.8053 867.913 75.304C868.414 74.792 869.113 74.392 870.009 74.104C870.66 73.9013 871.172 73.72 871.545 73.56C871.929 73.3893 872.345 73.1653 872.793 72.888L873.641 74.376C873.268 74.6107 872.873 74.824 872.457 75.016C872.041 75.208 871.534 75.3947 870.937 75.576C870.457 75.736 870.073 75.9227 869.785 76.136C869.508 76.3387 869.284 76.6267 869.113 77C868.953 77.3627 868.841 77.8587 868.777 78.488C869.396 77.56 870.26 77.096 871.369 77.096ZM870.569 83.56C871.07 83.56 871.465 83.3787 871.753 83.016C872.041 82.6427 872.185 82.0027 872.185 81.096C872.185 80.2533 872.062 79.6613 871.817 79.32C871.582 78.968 871.23 78.792 870.761 78.792C870.398 78.792 870.057 78.8933 869.737 79.096C869.417 79.288 869.15 79.5813 868.937 79.976V81.048C868.937 81.88 869.081 82.5093 869.369 82.936C869.657 83.352 870.057 83.56 870.569 83.56ZM880.543 85.016C880.201 86.0933 879.663 86.9253 878.927 87.512C878.201 88.0987 877.215 88.4347 875.967 88.52L875.727 86.888C876.537 86.7813 877.129 86.5893 877.503 86.312C877.887 86.0347 878.201 85.5973 878.447 85H877.663L875.023 76.52H877.439L879.135 83.528L880.927 76.52H883.279L880.543 85.016ZM887.789 76.264C888.354 76.264 888.861 76.3493 889.309 76.52C889.767 76.68 890.199 76.936 890.605 77.288L889.613 78.632C889.335 78.4187 889.063 78.264 888.797 78.168C888.541 78.072 888.258 78.024 887.949 78.024C886.743 78.024 886.141 78.952 886.141 80.808C886.141 81.7467 886.295 82.4187 886.605 82.824C886.914 83.2293 887.357 83.432 887.933 83.432C888.231 83.432 888.503 83.3893 888.749 83.304C888.994 83.208 889.282 83.0533 889.613 82.84L890.605 84.264C889.794 84.9253 888.866 85.256 887.821 85.256C886.989 85.256 886.263 85.0747 885.645 84.712C885.037 84.3493 884.567 83.8373 884.237 83.176C883.906 82.504 883.741 81.72 883.741 80.824C883.741 79.928 883.906 79.1387 884.237 78.456C884.567 77.7627 885.037 77.224 885.645 76.84C886.263 76.456 886.978 76.264 887.789 76.264ZM898.325 76.52L898.037 78.232H895.637V85H893.365V78.232H890.821V76.52H898.325ZM906.124 80.568C906.124 80.6747 906.108 80.968 906.076 81.448H900.78C900.855 82.216 901.063 82.76 901.404 83.08C901.745 83.4 902.209 83.56 902.796 83.56C903.159 83.56 903.5 83.5013 903.82 83.384C904.14 83.2667 904.487 83.08 904.86 82.824L905.804 84.104C904.855 84.872 903.783 85.256 902.588 85.256C901.255 85.256 900.231 84.856 899.516 84.056C898.801 83.256 898.444 82.1733 898.444 80.808C898.444 79.944 898.593 79.1707 898.892 78.488C899.201 77.7947 899.644 77.2507 900.22 76.856C900.807 76.4613 901.5 76.264 902.3 76.264C903.505 76.264 904.444 76.6427 905.116 77.4C905.788 78.1573 906.124 79.2133 906.124 80.568ZM903.868 79.928C903.868 78.52 903.361 77.816 902.348 77.816C901.879 77.816 901.511 77.992 901.244 78.344C900.988 78.6853 900.833 79.2453 900.78 80.024H903.868V79.928ZM912.344 76.264C913.411 76.264 914.2 76.6587 914.712 77.448C915.235 78.2267 915.496 79.3253 915.496 80.744C915.496 81.608 915.363 82.3813 915.096 83.064C914.83 83.7467 914.44 84.2853 913.928 84.68C913.427 85.064 912.83 85.256 912.136 85.256C911.272 85.256 910.574 84.952 910.04 84.344V88.264L907.768 88.52V76.52H909.768L909.88 77.512C910.2 77.096 910.574 76.7867 911 76.584C911.438 76.3707 911.886 76.264 912.344 76.264ZM911.464 83.56C912.574 83.56 913.128 82.6267 913.128 80.76C913.128 79.736 913.006 79.0107 912.76 78.584C912.515 78.1573 912.142 77.944 911.64 77.944C911.32 77.944 911.022 78.0453 910.744 78.248C910.478 78.44 910.243 78.7013 910.04 79.032V82.728C910.403 83.2827 910.878 83.56 911.464 83.56ZM923.623 82.648C923.623 82.9787 923.671 83.224 923.767 83.384C923.863 83.5333 924.023 83.6453 924.247 83.72L923.767 85.224C923.266 85.1813 922.855 85.064 922.535 84.872C922.226 84.68 921.986 84.3813 921.815 83.976C921.261 84.8293 920.413 85.256 919.271 85.256C918.429 85.256 917.757 85.016 917.255 84.536C916.765 84.0453 916.519 83.4107 916.519 82.632C916.519 81.704 916.855 80.9947 917.527 80.504C918.199 80.0133 919.165 79.768 920.423 79.768H921.399V79.352C921.399 78.8293 921.282 78.4667 921.047 78.264C920.813 78.0613 920.423 77.96 919.879 77.96C919.282 77.96 918.535 78.1093 917.639 78.408L917.127 76.888C918.183 76.472 919.229 76.264 920.263 76.264C921.415 76.264 922.263 76.5147 922.807 77.016C923.351 77.5067 923.623 78.2427 923.623 79.224V82.648ZM919.895 83.624C920.535 83.624 921.037 83.3093 921.399 82.68V81.064H920.647C919.421 81.064 918.807 81.5227 918.807 82.44C918.807 82.8133 918.898 83.1067 919.079 83.32C919.271 83.5227 919.543 83.624 919.895 83.624Z" fill="#171026" fill-opacity="0.2"/>
<path d="M1052.28 77.928C1053.66 77.928 1054.73 78.2213 1055.49 78.808C1056.25 79.384 1056.63 80.2373 1056.63 81.368C1056.63 82.5733 1056.23 83.48 1055.44 84.088C1054.67 84.696 1053.61 85 1052.29 85H1048.66V73.928H1055.36L1055.11 75.736H1051.01V77.928H1052.28ZM1052.16 83.256C1052.81 83.256 1053.31 83.112 1053.65 82.824C1053.99 82.5253 1054.16 82.0507 1054.16 81.4C1054.16 80.792 1053.99 80.3387 1053.65 80.04C1053.31 79.7413 1052.79 79.592 1052.1 79.592H1051.01V83.256H1052.16ZM1061.65 76.264C1062.92 76.264 1063.91 76.664 1064.62 77.464C1065.34 78.2533 1065.7 79.352 1065.7 80.76C1065.7 81.656 1065.53 82.4453 1065.2 83.128C1064.88 83.8 1064.41 84.3227 1063.79 84.696C1063.18 85.0693 1062.46 85.256 1061.63 85.256C1060.36 85.256 1059.37 84.8613 1058.64 84.072C1057.93 83.272 1057.57 82.168 1057.57 80.76C1057.57 79.864 1057.73 79.08 1058.05 78.408C1058.38 77.7253 1058.85 77.1973 1059.46 76.824C1060.08 76.4507 1060.81 76.264 1061.65 76.264ZM1061.65 77.96C1061.07 77.96 1060.64 78.1893 1060.35 78.648C1060.08 79.096 1059.94 79.8 1059.94 80.76C1059.94 81.72 1060.08 82.4293 1060.35 82.888C1060.64 83.336 1061.07 83.56 1061.63 83.56C1062.2 83.56 1062.62 83.336 1062.9 82.888C1063.18 82.4293 1063.33 81.72 1063.33 80.76C1063.33 79.8 1063.19 79.096 1062.91 78.648C1062.64 78.1893 1062.21 77.96 1061.65 77.96ZM1072.32 85V81.544H1069.7V85H1067.42V76.52H1069.7V79.832H1072.32V76.52H1074.59V85H1072.32ZM1081.2 85.016C1080.86 86.0933 1080.32 86.9253 1079.58 87.512C1078.86 88.0987 1077.87 88.4347 1076.62 88.52L1076.38 86.888C1077.19 86.7813 1077.79 86.5893 1078.16 86.312C1078.54 86.0347 1078.86 85.5973 1079.1 85H1078.32L1075.68 76.52H1078.09L1079.79 83.528L1081.58 76.52H1083.93L1081.2 85.016ZM1088.45 76.264C1089.01 76.264 1089.52 76.3493 1089.97 76.52C1090.42 76.68 1090.86 76.936 1091.26 77.288L1090.27 78.632C1089.99 78.4187 1089.72 78.264 1089.45 78.168C1089.2 78.072 1088.91 78.024 1088.61 78.024C1087.4 78.024 1086.8 78.952 1086.8 80.808C1086.8 81.7467 1086.95 82.4187 1087.26 82.824C1087.57 83.2293 1088.01 83.432 1088.59 83.432C1088.89 83.432 1089.16 83.3893 1089.41 83.304C1089.65 83.208 1089.94 83.0533 1090.27 82.84L1091.26 84.264C1090.45 84.9253 1089.52 85.256 1088.48 85.256C1087.65 85.256 1086.92 85.0747 1086.3 84.712C1085.69 84.3493 1085.22 83.8373 1084.89 83.176C1084.56 82.504 1084.4 81.72 1084.4 80.824C1084.4 79.928 1084.56 79.1387 1084.89 78.456C1085.22 77.7627 1085.69 77.224 1086.3 76.84C1086.92 76.456 1087.63 76.264 1088.45 76.264ZM1095.38 79.176C1096.73 79.176 1097.71 79.4267 1098.33 79.928C1098.96 80.4187 1099.27 81.1387 1099.27 82.088C1099.27 83.0373 1098.94 83.7627 1098.28 84.264C1097.63 84.7547 1096.78 85 1095.73 85H1092.55V76.52H1094.82V79.176H1095.38ZM1100.12 76.52H1102.39V85H1100.12V76.52ZM1095.51 83.464C1096.46 83.464 1096.93 82.9947 1096.93 82.056C1096.93 81.5867 1096.82 81.24 1096.58 81.016C1096.35 80.792 1095.94 80.68 1095.37 80.68H1094.82V83.464H1095.51Z" fill="#171026" fill-opacity="0.2"/>
<g clip-path="url(#clip0_1_3899)">
<path d="M129.906 34C130.094 34 130.283 34 130.283 33.8017C134.06 28.6446 139.726 23.2892 152.568 23.2892H1089.24C1089.62 23.2892 1089.81 23.0909 1089.81 22.6942C1089.81 22.2975 1089.62 22.0991 1089.24 22.0991H152.568C139.537 22.0991 133.494 27.4545 129.906 32.4132C125.751 27.0578 120.652 21.9008 108.187 21.9008H-829.433C-829.811 21.9008 -830 22.0991 -830 22.4958C-830 22.8925 -829.811 23.0909 -829.433 23.0909H108.187C120.652 23.0909 125.562 28.4463 129.528 33.8017C129.528 33.8017 129.717 34 129.906 34Z" fill="#171026" fill-opacity="0.2"/>
<path d="M129.906 29.8348C130.094 29.8348 130.283 29.8348 130.283 29.6365C134.816 23.2894 141.237 20.7108 152.568 20.7108H1089.24C1089.62 20.7108 1089.81 20.5125 1089.81 20.1158C1089.81 19.7191 1089.62 19.5208 1089.24 19.5208H152.568C141.237 19.5208 134.627 22.0993 129.717 28.248C125.751 22.8927 120.652 19.7191 108.187 19.7191H-829.433C-829.811 19.7191 -830 19.9174 -830 20.3141C-830 20.7108 -829.811 20.9092 -829.433 20.9092H108.187C120.652 20.9092 125.373 24.0827 129.528 29.8348C129.528 29.8348 129.717 29.8348 129.906 29.8348Z" fill="#171026" fill-opacity="0.2"/>
<path d="M151.813 28.0496H1089.43C1089.81 28.0496 1090 27.8513 1090 27.4546C1090 27.0579 1089.81 26.8595 1089.43 26.8595H151.813C139.348 26.8595 134.438 21.5041 130.472 16.1488C130.283 15.9504 129.906 15.9504 129.717 16.1488C125.94 21.3058 120.274 26.6612 107.432 26.6612H-829.433C-829.811 26.8595 -830 27.0579 -830 27.4546C-830 27.8513 -829.811 28.0496 -829.433 28.0496H107.243C120.274 28.0496 126.317 22.4959 130.094 17.5372C134.06 23.0909 139.16 28.0496 151.813 28.0496Z" fill="#171026" fill-opacity="0.2"/>
<path d="M-829.433 30.4297H107.243C118.574 30.4297 125.184 27.8512 130.094 21.7024C134.249 27.2562 139.348 30.4297 151.813 30.4297H1089.43C1089.81 30.4297 1090 30.2314 1090 29.8347C1090 29.438 1089.81 29.2396 1089.43 29.2396H151.813C139.348 29.2396 134.627 26.0661 130.472 20.314C130.283 20.1156 129.906 20.1156 129.717 20.314C125.184 26.6611 118.763 29.2396 107.432 29.2396H-829.433C-829.811 29.2396 -830 29.438 -830 29.8347C-830 30.2314 -829.811 30.4297 -829.433 30.4297Z" fill="#171026" fill-opacity="0.2"/>
</g>
<g clip-path="url(#clip1_1_3899)">
<path d="M339.906 34C340.094 34 340.283 34 340.283 33.8017C344.06 28.6446 349.726 23.2892 362.568 23.2892H1299.24C1299.62 23.2892 1299.81 23.0909 1299.81 22.6942C1299.81 22.2975 1299.62 22.0991 1299.24 22.0991H362.568C349.537 22.0991 343.494 27.4545 339.906 32.4132C335.751 27.0578 330.652 21.9008 318.187 21.9008H-619.433C-619.811 21.9008 -620 22.0991 -620 22.4958C-620 22.8925 -619.811 23.0909 -619.433 23.0909H318.187C330.652 23.0909 335.562 28.4463 339.528 33.8017C339.528 33.8017 339.717 34 339.906 34Z" fill="#171026" fill-opacity="0.2"/>
<path d="M339.906 29.8348C340.094 29.8348 340.283 29.8348 340.283 29.6365C344.816 23.2894 351.237 20.7108 362.568 20.7108H1299.24C1299.62 20.7108 1299.81 20.5125 1299.81 20.1158C1299.81 19.7191 1299.62 19.5208 1299.24 19.5208H362.568C351.237 19.5208 344.627 22.0993 339.717 28.248C335.751 22.8927 330.652 19.7191 318.187 19.7191H-619.433C-619.811 19.7191 -620 19.9174 -620 20.3141C-620 20.7108 -619.811 20.9092 -619.433 20.9092H318.187C330.652 20.9092 335.373 24.0827 339.528 29.8348C339.528 29.8348 339.717 29.8348 339.906 29.8348Z" fill="#171026" fill-opacity="0.2"/>
<path d="M361.813 28.0496H1299.43C1299.81 28.0496 1300 27.8513 1300 27.4546C1300 27.0579 1299.81 26.8595 1299.43 26.8595H361.813C349.348 26.8595 344.438 21.5041 340.472 16.1488C340.283 15.9504 339.906 15.9504 339.717 16.1488C335.94 21.3058 330.274 26.6612 317.432 26.6612H-619.433C-619.811 26.8595 -620 27.0579 -620 27.4546C-620 27.8513 -619.811 28.0496 -619.433 28.0496H317.243C330.274 28.0496 336.317 22.4959 340.094 17.5372C344.06 23.0909 349.16 28.0496 361.813 28.0496Z" fill="#171026" fill-opacity="0.2"/>
<path d="M-619.433 30.4297H317.243C328.574 30.4297 335.184 27.8512 340.094 21.7024C344.249 27.2562 349.348 30.4297 361.813 30.4297H1299.43C1299.81 30.4297 1300 30.2314 1300 29.8347C1300 29.438 1299.81 29.2396 1299.43 29.2396H361.813C349.348 29.2396 344.627 26.0661 340.472 20.314C340.283 20.1156 339.906 20.1156 339.717 20.314C335.184 26.6611 328.763 29.2396 317.432 29.2396H-619.433C-619.811 29.2396 -620 29.438 -620 29.8347C-620 30.2314 -619.811 30.4297 -619.433 30.4297Z" fill="#171026" fill-opacity="0.2"/>
</g>
<g clip-path="url(#clip2_1_3899)">
<path d="M549.906 34C550.094 34 550.283 34 550.283 33.8017C554.06 28.6446 559.726 23.2892 572.568 23.2892H1509.24C1509.62 23.2892 1509.81 23.0909 1509.81 22.6942C1509.81 22.2975 1509.62 22.0991 1509.24 22.0991H572.568C559.537 22.0991 553.494 27.4545 549.906 32.4132C545.751 27.0578 540.652 21.9008 528.187 21.9008H-409.433C-409.811 21.9008 -410 22.0991 -410 22.4958C-410 22.8925 -409.811 23.0909 -409.433 23.0909H528.187C540.652 23.0909 545.562 28.4463 549.528 33.8017C549.528 33.8017 549.717 34 549.906 34Z" fill="#171026" fill-opacity="0.2"/>
<path d="M549.906 29.8348C550.094 29.8348 550.283 29.8348 550.283 29.6365C554.816 23.2894 561.237 20.7108 572.568 20.7108H1509.24C1509.62 20.7108 1509.81 20.5125 1509.81 20.1158C1509.81 19.7191 1509.62 19.5208 1509.24 19.5208H572.568C561.237 19.5208 554.627 22.0993 549.717 28.248C545.751 22.8927 540.652 19.7191 528.187 19.7191H-409.433C-409.811 19.7191 -410 19.9174 -410 20.3141C-410 20.7108 -409.811 20.9092 -409.433 20.9092H528.187C540.652 20.9092 545.373 24.0827 549.528 29.8348C549.528 29.8348 549.717 29.8348 549.906 29.8348Z" fill="#171026" fill-opacity="0.2"/>
<path d="M571.813 28.0496H1509.43C1509.81 28.0496 1510 27.8513 1510 27.4546C1510 27.0579 1509.81 26.8595 1509.43 26.8595H571.813C559.348 26.8595 554.438 21.5041 550.472 16.1488C550.283 15.9504 549.906 15.9504 549.717 16.1488C545.94 21.3058 540.274 26.6612 527.432 26.6612H-409.433C-409.811 26.8595 -410 27.0579 -410 27.4546C-410 27.8513 -409.811 28.0496 -409.433 28.0496H527.243C540.274 28.0496 546.317 22.4959 550.094 17.5372C554.06 23.0909 559.16 28.0496 571.813 28.0496Z" fill="#171026" fill-opacity="0.2"/>
<path d="M-409.433 30.4297H527.243C538.574 30.4297 545.184 27.8512 550.094 21.7024C554.249 27.2562 559.348 30.4297 571.813 30.4297H1509.43C1509.81 30.4297 1510 30.2314 1510 29.8347C1510 29.438 1509.81 29.2396 1509.43 29.2396H571.813C559.348 29.2396 554.627 26.0661 550.472 20.314C550.283 20.1156 549.906 20.1156 549.717 20.314C545.184 26.6611 538.763 29.2396 527.432 29.2396H-409.433C-409.811 29.2396 -410 29.438 -410 29.8347C-410 30.2314 -409.811 30.4297 -409.433 30.4297Z" fill="#171026" fill-opacity="0.2"/>
</g>
<g clip-path="url(#clip3_1_3899)">
<path d="M759.906 34C760.094 34 760.283 34 760.283 33.8017C764.06 28.6446 769.726 23.2892 782.568 23.2892H1719.24C1719.62 23.2892 1719.81 23.0909 1719.81 22.6942C1719.81 22.2975 1719.62 22.0991 1719.24 22.0991H782.568C769.537 22.0991 763.494 27.4545 759.906 32.4132C755.751 27.0578 750.652 21.9008 738.187 21.9008H-199.433C-199.811 21.9008 -200 22.0991 -200 22.4958C-200 22.8925 -199.811 23.0909 -199.433 23.0909H738.187C750.652 23.0909 755.562 28.4463 759.528 33.8017C759.528 33.8017 759.717 34 759.906 34Z" fill="#171026" fill-opacity="0.2"/>
<path d="M759.906 29.8348C760.094 29.8348 760.283 29.8348 760.283 29.6365C764.816 23.2894 771.237 20.7108 782.568 20.7108H1719.24C1719.62 20.7108 1719.81 20.5125 1719.81 20.1158C1719.81 19.7191 1719.62 19.5208 1719.24 19.5208H782.568C771.237 19.5208 764.627 22.0993 759.717 28.248C755.751 22.8927 750.652 19.7191 738.187 19.7191H-199.433C-199.811 19.7191 -200 19.9174 -200 20.3141C-200 20.7108 -199.811 20.9092 -199.433 20.9092H738.187C750.652 20.9092 755.373 24.0827 759.528 29.8348C759.528 29.8348 759.717 29.8348 759.906 29.8348Z" fill="#171026" fill-opacity="0.2"/>
<path d="M781.813 28.0496H1719.43C1719.81 28.0496 1720 27.8513 1720 27.4546C1720 27.0579 1719.81 26.8595 1719.43 26.8595H781.813C769.348 26.8595 764.438 21.5041 760.472 16.1488C760.283 15.9504 759.906 15.9504 759.717 16.1488C755.94 21.3058 750.274 26.6612 737.432 26.6612H-199.433C-199.811 26.8595 -200 27.0579 -200 27.4546C-200 27.8513 -199.811 28.0496 -199.433 28.0496H737.243C750.274 28.0496 756.317 22.4959 760.094 17.5372C764.06 23.0909 769.16 28.0496 781.813 28.0496Z" fill="#171026" fill-opacity="0.2"/>
<path d="M-199.433 30.4297H737.243C748.574 30.4297 755.184 27.8512 760.094 21.7024C764.249 27.2562 769.348 30.4297 781.813 30.4297H1719.43C1719.81 30.4297 1720 30.2314 1720 29.8347C1720 29.438 1719.81 29.2396 1719.43 29.2396H781.813C769.348 29.2396 764.627 26.0661 760.472 20.314C760.283 20.1156 759.906 20.1156 759.717 20.314C755.184 26.6611 748.763 29.2396 737.432 29.2396H-199.433C-199.811 29.2396 -200 29.438 -200 29.8347C-200 30.2314 -199.811 30.4297 -199.433 30.4297Z" fill="#171026" fill-opacity="0.2"/>
</g>
<g clip-path="url(#clip4_1_3899)">
<path d="M969.906 34C970.094 34 970.283 34 970.283 33.8017C974.06 28.6446 979.726 23.2892 992.568 23.2892H1929.24C1929.62 23.2892 1929.81 23.0909 1929.81 22.6942C1929.81 22.2975 1929.62 22.0991 1929.24 22.0991H992.568C979.537 22.0991 973.494 27.4545 969.906 32.4132C965.751 27.0578 960.652 21.9008 948.187 21.9008H10.5666C10.1889 21.9008 10 22.0991 10 22.4958C10 22.8925 10.1889 23.0909 10.5666 23.0909H948.187C960.652 23.0909 965.562 28.4463 969.528 33.8017C969.528 33.8017 969.717 34 969.906 34Z" fill="#171026" fill-opacity="0.2"/>
<path d="M969.906 29.8348C970.094 29.8348 970.283 29.8348 970.283 29.6365C974.816 23.2894 981.237 20.7108 992.568 20.7108H1929.24C1929.62 20.7108 1929.81 20.5125 1929.81 20.1158C1929.81 19.7191 1929.62 19.5208 1929.24 19.5208H992.568C981.237 19.5208 974.627 22.0993 969.717 28.248C965.751 22.8927 960.652 19.7191 948.187 19.7191H10.5666C10.1889 19.7191 10 19.9174 10 20.3141C10 20.7108 10.1889 20.9092 10.5666 20.9092H948.187C960.652 20.9092 965.373 24.0827 969.528 29.8348C969.528 29.8348 969.717 29.8348 969.906 29.8348Z" fill="#171026" fill-opacity="0.2"/>
<path d="M991.813 28.0496H1929.43C1929.81 28.0496 1930 27.8513 1930 27.4546C1930 27.0579 1929.81 26.8595 1929.43 26.8595H991.813C979.348 26.8595 974.438 21.5041 970.472 16.1488C970.283 15.9504 969.906 15.9504 969.717 16.1488C965.94 21.3058 960.274 26.6612 947.432 26.6612H10.5666C10.1889 26.8595 10 27.0579 10 27.4546C10 27.8513 10.1889 28.0496 10.5666 28.0496H947.243C960.274 28.0496 966.317 22.4959 970.094 17.5372C974.06 23.0909 979.16 28.0496 991.813 28.0496Z" fill="#171026" fill-opacity="0.2"/>
<path d="M10.5666 30.4297H947.243C958.574 30.4297 965.184 27.8512 970.094 21.7024C974.249 27.2562 979.348 30.4297 991.813 30.4297H1929.43C1929.81 30.4297 1930 30.2314 1930 29.8347C1930 29.438 1929.81 29.2396 1929.43 29.2396H991.813C979.348 29.2396 974.627 26.0661 970.472 20.314C970.283 20.1156 969.906 20.1156 969.717 20.314C965.184 26.6611 958.763 29.2396 947.432 29.2396H10.5666C10.1889 29.2396 10 29.438 10 29.8347C10 30.2314 10.1889 30.4297 10.5666 30.4297Z" fill="#171026" fill-opacity="0.2"/>
</g>
<defs>
<clipPath id="clip0_1_3899">
<rect width="140" height="20" fill="white" transform="translate(60 15)"/>
</clipPath>
<clipPath id="clip1_1_3899">
<rect width="140" height="20" fill="white" transform="translate(270 15)"/>
</clipPath>
<clipPath id="clip2_1_3899">
<rect width="140" height="20" fill="white" transform="translate(480 15)"/>
</clipPath>
<clipPath id="clip3_1_3899">
<rect width="140" height="20" fill="white" transform="translate(690 15)"/>
</clipPath>
<clipPath id="clip4_1_3899">
<rect width="140" height="20" fill="white" transform="translate(900 15)"/>
</clipPath>
</defs>
</svg>
