<svg width="30" height="20" viewBox="0 0 30 20" fill="none" xmlns="http://www.w3.org/2000/svg">
<path d="M18.9545 10.1333C18.9545 10.1333 18.9545 10 19.0909 10C19.0909 9.6 18.9545 9.06667 18.8182 8.66667C18.6818 8.8 18.6818 8.8 18.6818 8.93333C18.5455 9.2 18.4091 9.33333 18.1364 9.46667C17.7273 9.6 17.1818 9.73333 16.7727 9.73333C16.3636 9.86667 15.9545 10 15.6818 9.6C15.5455 9.46667 15.2727 9.46667 15.1364 9.6C14.1818 9.86667 13.2273 10 12.4091 10.2667C12.2727 10.2667 12 10.5333 12 10.6667C11.7273 10.8 11.4545 11.0667 11.0455 11.0667C11.1818 11.6 11.4545 12 11.7273 12.4C11.8636 12.4 12.1364 12.4 12.2727 12.4C12.2727 12.5333 12.2727 12.6667 12.2727 12.6667L12.1364 12.8C12.9545 13.4667 13.9091 13.8667 15 13.8667C16.0909 13.8667 17.1818 13.4667 17.8636 12.6667C18.5455 12 18.8182 11.2 18.9545 10.4C18.9545 10.4 18.9545 10.2667 18.9545 10.1333ZM17.4545 11.6C17.3182 11.6 17.0455 11.4667 16.7727 11.3333C16.9091 11.0667 17.0455 10.8 17.0455 10.5333C17.3182 10.6667 17.5909 10.8 17.7273 11.0667C17.7273 11.2 17.8636 11.6 17.4545 11.6Z" fill="#D76700"/>
<path d="M11.4545 4.26667C11.5909 4.26667 11.5909 4.26667 11.4545 4.26667V4.26667Z" fill="#D76700"/>
<path d="M10.9091 9.46667C10.9091 9.46667 11.0455 9.46667 11.0455 9.6C11.1818 9.73333 11.4545 9.6 11.7273 9.6C12.1364 9.6 12.2727 9.46667 12.2727 9.06667C12.2727 8.8 12.1364 8.53333 12.1364 8.26667C12.1364 8.13333 12.1364 7.73333 12.2727 7.73333C12.5455 7.6 12.6818 8 12.6818 8.13333C12.8182 8.4 12.8182 8.66667 12.9545 8.93333C13.0909 9.2 13.2273 9.33333 13.6364 9.2C13.7727 9.06667 14.0455 9.06667 14.1818 8.93333C14.4545 8.53333 14.7273 8.26667 15.2727 8.66667C15.5455 8.8 16.2273 8.4 16.2273 8.13333C16.2273 7.73333 16.5 7.6 16.7727 7.6C17.3182 7.6 17.8636 7.33333 18.4091 7.73333C18.2727 7.6 18.1364 7.33333 18 7.2C17.1818 6.4 16.2273 6 15.1364 6C14.0455 6 12.8182 6.4 12.1364 7.2C11.4545 7.73333 11.0455 8.53333 10.9091 9.46667Z" fill="#D76700"/>
<path d="M5.31818 16.8L5.45455 16.6667C5.59091 16.8 5.72727 16.9333 5.86364 17.0667V17.2C6.40909 17.6 6.95455 17.8667 7.63636 18.2667C7.63636 18.1333 7.63636 18 7.63636 17.8667C7.5 17.7333 7.09091 17.8667 6.95455 17.7333C6.81818 17.7333 6.68182 17.6 6.68182 17.4667C6.54545 17.3333 6.27273 16.9333 6.40909 16.9333C6.54545 16.6667 6.95455 16.4 7.22727 16.2667C7.36364 16.2667 7.5 16.4 7.63636 16.5333C8.04545 16.9333 8.45455 17.4667 8.86364 17.8667C9.13636 18.1333 9.40909 18.5333 9.27273 19.0667C10.9091 19.6 12.9545 20 15 20C17.1818 20 19.2273 19.6 21.1364 18.8C21 18.8 20.7273 18.8 20.5909 18.5333C20.4545 18.2667 20.1818 18.1333 20.1818 18C20.1818 17.6 19.9091 17.2 20.4545 17.0667C21 16.9333 21.2727 16.9333 21.5455 17.4667C21.6818 17.7333 21.6818 17.8667 21.6818 18.1333C21.6818 18.4 21.6818 18.6667 21.4091 18.8C22.3636 18.4 23.3182 17.8667 24.2727 17.2V17.0667C24.1364 16.5333 24.2727 16.1333 24.8182 16C25.2273 15.8667 25.3636 16.1333 25.3636 16.4C26.5909 15.3333 27.6818 14.2667 28.6364 12.9333C28.5 12.9333 28.3636 12.9333 28.2273 12.8C28.2273 12.6667 28.3636 12.5333 28.3636 12.5333C28.5 12.2667 28.6364 12 28.7727 11.7333C28.9091 11.8667 29.0455 11.8667 29.1818 12C29.4545 11.3333 29.7273 10.6667 30 10C29.5909 8.93333 29.0455 7.86667 28.3636 6.93333C27.9545 7.06667 27.5455 7.2 27.1364 7.2C26.7273 7.33333 26.5909 7.2 26.4545 6.8C26.0455 6 26.1818 5.6 27.1364 5.2C26.1818 4.13333 25.0909 3.33333 24 2.53333C23.7273 2.53333 23.4545 2.66667 23.4545 3.06667C23.4545 3.33333 23.1818 3.33333 22.9091 3.2C22.3636 2.8 21.9545 2.93333 21.5455 3.46667C21.2727 4 20.4545 4 20.0455 3.6C19.7727 3.33333 19.3636 3.2 18.9545 3.06667L18.6818 3.2C18.6818 3.73333 18.2727 3.73333 17.8636 3.73333C18.5455 4 19.2273 4.53333 19.9091 5.06667C20.3182 5.46667 20.7273 6 21 6.4C21.9545 6.26667 22.9091 6 23.7273 5.6C24.4091 5.33333 24.9545 5.6 24.9545 6.26667C24.9545 6.4 24.8182 6.53333 24.8182 6.8C24.8182 6.93333 24.5455 7.06667 24.5455 7.2C24.5455 7.6 24.2727 7.6 24 7.73333C23.4545 7.86667 22.9091 8 22.3636 8.13333C22.0909 8.13333 21.9545 8.26667 21.6818 8.26667C21.6818 8.53333 21.8182 8.66667 21.8182 8.93333C21.9545 8.93333 22.2273 8.93333 22.3636 9.2C22.5 9.33333 22.6364 9.33333 22.7727 9.33333C23.1818 9.33333 23.5909 9.33333 24 9.2C24.4091 9.06667 24.8182 9.06667 24.9545 8.4C24.9545 8.13333 25.3636 8 25.5 8.26667C25.7727 8.66667 26.0455 8.53333 26.3182 8.53333C26.7273 8.53333 27 8.4 26.8636 8C26.8636 7.86667 27 7.86667 27 7.73333C27.1364 7.6 28.3636 8.26667 28.2273 8.4C28.2273 8.53333 28.0909 8.66667 27.9545 8.8C27.6818 9.2 27.2727 9.33333 27 9.33333C26.4545 9.46667 25.9091 9.33333 25.7727 10.1333C25.7727 10.2667 25.5 10.2667 25.3636 10.4C24.9545 10.5333 24.5455 10.5333 24.5455 11.0667C24.5455 11.0667 24.4091 11.2 24.2727 11.2C23.8636 10.9333 23.4545 10.8 23.0455 10.5333C22.7727 10.4 22.2273 10.5333 21.9545 10.8C21.9545 10.8 21.9545 10.8 21.8182 10.9333C21.5455 12 21.1364 13.0667 20.4545 13.8667C20.5909 14 20.5909 14.1333 20.5909 14.2667C20.7273 14.5333 20.7273 14.9333 20.3182 14.9333C19.9091 15.0667 19.9091 14.6667 19.7727 14.5333C19.7727 14.5333 19.7727 14.6667 19.6364 14.6667C18.4091 15.8667 16.6364 16.6667 14.8636 16.6667C14.5909 16.6667 14.1818 16.6667 13.9091 16.5333C13.9091 16.5333 13.7727 16.6667 13.6364 16.6667C13.2273 16.6667 12.8182 16.8 12.4091 16.8C12 16.8 11.8636 16.4 11.7273 16.1333C11.7273 16.1333 11.7273 16 11.8636 16C11.1818 15.7333 10.5 15.2 9.95455 14.6667C9.13636 13.8667 8.59091 12.8 8.18182 11.7333C8.31818 11.7333 8.18182 11.6 7.90909 11.4667C7.63636 11.2 6.81818 11.4667 6.68182 11.8667C6.54545 12.4 6 12.2667 5.72727 12.4C5.31818 12.5333 4.90909 12.8 4.63636 12.2667C4.63636 12.1333 4.36364 12.1333 4.22727 12.1333C4.22727 12.2667 4.09091 12.4 3.81818 12.5333C3.54545 12.9333 3.27273 13.0667 3 13.0667C2.86364 13.2 2.72727 13.2 2.31818 13.3333C2.18182 13.4667 2.04545 13.4667 1.90909 13.4667C2.86364 14.8 4.09091 15.8667 5.31818 16.8ZM20.1818 5.2C20.0455 5.2 19.9091 5.2 19.7727 5.2C19.7727 5.06667 19.7727 4.93333 19.7727 4.8C19.9091 4.8 20.0455 4.8 20.0455 4.93333C20.1818 4.93333 20.1818 5.2 20.1818 5.2ZM23.5909 5.33333C23.4545 5.33333 23.1818 5.06667 23.0455 5.06667C23.1818 4.66667 22.7727 4.26667 23.3182 4.13333C23.7273 4 23.7273 4.53333 23.8636 4.8C23.8636 5.06667 23.8636 5.33333 23.5909 5.33333ZM24.2727 13.6C24.2727 13.6 24.4091 13.6 24.4091 13.7333C24.4091 13.8667 24.4091 13.8667 24.4091 14.1333C24.2727 14 24.1364 14 24.1364 14C24.1364 13.7333 24.2727 13.6 24.2727 13.6ZM4.09091 13.2C4.36364 13.0667 5.59091 13.0667 5.59091 13.3333C5.59091 13.6 5.59091 13.7333 5.59091 14C6 13.8667 6.40909 13.7333 6.68182 13.7333C7.09091 13.6 7.22727 13.8667 7.36364 14.1333C7.5 14.5333 7.5 14.8 7.09091 14.9333C6.95455 14.9333 6.81818 15.0667 6.54545 15.0667C6.13636 15.0667 5.72727 15.2 5.31818 14.8C5.31818 14.8 5.31818 14.8 5.18182 14.6667C4.90909 14.8 4.63636 14.8 4.36364 14.6667C4.09091 14.6667 3.95455 14.4 3.95455 14.4C3.40909 13.7333 3.54545 13.6 4.09091 13.2Z" fill="#D76700"/>
<path d="M0.954545 8C1.09091 8.13333 1.09091 8.4 1.09091 8.66667C1.09091 8.8 1.09091 9.06667 1.22727 9.2C1.36364 9.46667 1.5 9.6 1.77273 9.73333C2.04545 10 2.45455 10.1333 2.04545 10.5333C1.5 11.0667 1.22727 11.0667 0.681818 10.6667C0.545455 10.4 0.272727 10.1333 0 9.86667C0 9.86667 0 9.86667 0 10C0.272727 10.8 0.681818 11.4667 1.09091 12.2667C1.36364 12.1333 1.77273 12 2.04545 12C2.04545 11.8667 1.90909 11.7333 2.04545 11.7333C2.31818 11.4667 2.59091 11.3333 2.86364 11.2C3 11.2 3.27273 11.3333 3.27273 11.2C3.81818 10.8 3.95455 11.2 4.09091 11.6C4.5 11.2 4.77273 10.5333 5.45455 10.4C5.86364 10.4 6.13636 10.2667 6.40909 10.6667C6.68182 11.0667 6.81818 10.9333 6.95455 10.5333C7.09091 10.2667 7.22727 10.1333 7.5 10C7.63636 10 7.90909 9.86667 8.04545 9.86667C8.04545 8.53333 8.45455 7.33333 9.13636 6.26667C9.40909 6.13333 9.54545 6.13333 9.54545 6C9.40909 6 9.40909 6 9.27273 5.86667C9 5.6 8.86364 5.6 8.72727 5.86667C8.45455 6.26667 8.18182 6.26667 7.90909 6C7.63636 5.73333 7.22727 5.86667 7.09091 5.33333C6.95455 4.8 7.36364 4 7.90909 3.73333C8.18182 3.6 8.45455 3.6 8.72727 3.46667C9 3.46667 9.13636 3.33333 9.40909 3.33333C9.68182 3.2 9.95455 3.2 10.2273 3.06667C10.9091 2.8 11.4545 3.33333 12 3.46667C12.1364 3.46667 12.2727 3.6 12.2727 3.73333V3.86667C12.5455 3.73333 12.9545 3.6 13.2273 3.6C13.2273 3.46667 13.3636 3.33333 13.3636 3.2C13.5 2.93333 13.9091 2.93333 14.1818 3.2C14.1818 3.33333 14.1818 3.33333 14.3182 3.46667C14.5909 3.46667 14.7273 3.46667 15 3.46667C15.2727 3.46667 15.4091 3.46667 15.6818 3.46667V3.33333C15.6818 3.06667 15.5455 2.93333 15.5455 2.66667C15.4091 2 15.5455 1.86667 16.2273 1.86667C16.5 1.86667 16.6364 1.86667 16.7727 2.13333C16.9091 2.53333 17.0455 2.93333 17.3182 3.33333C17.3182 3.46667 17.5909 3.6 17.5909 3.6C17.5909 3.33333 17.7273 3.2 17.7273 3.06667C17.5909 2.53333 17.7273 2.13333 18 1.6C18.1364 1.46667 18.1364 1.2 18.1364 1.2C18.4091 1.06667 18.6818 0.933333 18.9545 1.06667C19.0909 1.06667 19.2273 1.46667 19.3636 1.6C19.5 1.73333 19.6364 2 19.7727 2C20.0455 2 20.1818 1.73333 20.1818 1.6C20.1818 1.33333 20.4545 1.2 20.4545 0.933333C19.2273 0.533333 17.8636 0.133333 16.3636 0H16.2273C15.8182 0 15.2727 0 14.8636 0C9 0 3.81818 3.2 0.954545 8ZM3.40909 6.13333C3.27273 6.13333 3.13636 6 3 5.86667C3.13636 5.73333 3.27273 5.6 3.40909 5.6C3.54545 5.6 3.68182 5.73333 3.68182 5.73333C3.68182 5.86667 3.54545 6 3.40909 6.13333ZM6 6.53333C6 6.66667 5.86364 6.93333 5.72727 6.93333C5.45455 7.06667 5.18182 6.93333 4.90909 6.8C5.04545 6.66667 5.31818 6.4 5.59091 6.13333C5.72727 6.4 6 6.4 6 6.53333ZM5.31818 4.4C5.31818 4.4 5.59091 4.53333 5.59091 4.66667C5.59091 4.8 5.45455 4.93333 5.31818 4.93333C5.31818 4.93333 5.18182 4.8 4.90909 4.66667C5.04545 4.53333 5.18182 4.53333 5.31818 4.4Z" fill="#D76700"/>
</svg>
